<svg version="1.2" xmlns="http://www.w3.org/2000/svg" viewBox="0 0 1403 93" width="1403" height="93"><style>.a{mix-blend-mode:luminosity;fill:none;stroke:#cfcfcf}</style><path fill-rule="evenodd" class="a" d="m34.1 85.1c-0.6 0.7-1.2 1.4-1.8 2-1.3 1.2-2.9 1.4-4.6 0.9-1.5-0.4-2.7-1.1-2.9-2.7-0.3-1.4 0.9-3.1 2.5-3.1 0.9 0 2.2 0.5 2.5 1.1 0.3 0.6-0.3 1.7-0.6 2.8 0.6 0.4 1.6 0.3 2.4-0.5 0.6-0.7 1.2-1.5 1.3-2.3 0.3-2.2 0.5-4.5 0.3-6.7-0.1-2.1-1.6-3.6-3.7-4.4-2.3-0.9-3.7-0.2-5 2.6-0.6-1.2-1.1-2.2-1.6-3.2-2.1 0.4-4.1 3-3.8 5 0.3 1.7 1.4 2.5 2.8 2.4 0.8-1.1 1.1-2.2 1.9-2.5 0.7-0.3 2.2 0 2.8 0.5 1.7 1.4 0.9 3.9-1.3 4.6-0.5 0.2-1.1 0.3-1.3 0.3-0.7 2.1-1.3 3.8-2 5.6q-0.2 0-0.5-0.1c-0.7-1.4-1.4-2.8-2-4-1.8 1-3.7 2-5.6 3 0.7-2.5 1.4-4.5 1.9-6.6 0.3-1.2 0.2-2.4 0.6-3.6 0.8-2.6 2.7-4.6 5.2-5.9-0.9-1.6-1.6-3-2.4-4.4q0.3-0.2 0.6-0.4c3.4 3.6 8.9 3.6 13.2 6.1 0.2-2.7 0.4-5.2-0.6-7.6-0.9-2.2-2.3-3-5.2-3 0.4-0.6 0.7-1.2 1-1.8-1.9-0.8-4.2-0.1-5.1 1.6-0.8 1.6-0.3 2.9 1.4 3.4 0.1 0 0.3-0.1 0.3-0.1 0.2-1 0.7-2 1.9-1.8 0.8 0.1 2 0.6 2.3 1.2 0.4 0.8 0.2 2-0.2 2.8-0.3 0.5-1.4 0.9-2.2 1.1-2 0.3-5-1.3-5.9-2.9-0.9-1.8-0.4-4.4 1.4-5.7 0.7-0.5 0.8-0.9 0.6-1.7-0.2-1.2 0-2.4 0.2-3.7 1.2 2.3 2.4 4.4 5.8 4.4 0.1-0.8 0.2-1.6 0.3-2.3 1.4 1.6 2.6 3.2 4.1 5.1 0.1-5.2-2.6-7.5-6.1-6.3 1.2-2.4-1-3.8-1.6-5.7-0.3-1.1-0.2-2.2-0.2-3.3q0.2-0.1 0.5-0.1c1 1 2 2 3.1 3.1 0.5-0.6 1.1-1.2 1.9-2.1-0.2 2.2-0.2 4 2.1 5.4 0-2.8 0.6-5.4-0.3-8-0.3-0.7-1-1.3-1.7-1.9-0.2-0.2-0.8-0.2-1.2-0.3-0.1 0.3-0.2 0.7-0.3 1-0.2 0.4-0.3 0.9-0.5 1-0.5 0.1-1.3 0-1.4-0.3-0.5-0.8-1-1.8-0.9-2.6 0.1-0.6 1-1.2 1.7-1.7 0.4-0.2 1-0.2 1.3-0.3q-0.8-2-1.6-4 0.2-0.1 0.5-0.2 2.3 1.3 4.6 2.5c0.6-2.5-0.4-4.1-3.9-5.6 0.7-0.3 1.3-0.7 2.1-1.1-2-3.9 0.8-7.1 2.6-10.9 1.6 3.8 4.6 6.8 2.5 10.9 0.8 0.4 1.4 0.7 2.2 1.1-3 1.1-4.6 2.8-4 5.7 1.6-0.9 3.1-1.7 4.9-2.7 0.3 1.7-0.2 3-1.7 4.2 0.8 0.1 1.5 0.1 1.9 0.4 0.7 0.6 1.6 1.3 1.6 2 0.1 0.8-0.4 1.7-1 2.4-0.7 0.7-1.7 0.3-1.8-0.6 0-0.4 0-0.7 0.1-1.1-1.3-0.4-2.3 0.2-2.6 1-0.6 1.6-1 3.2-1.1 4.8-0.2 1.3 0.1 2.7 0.2 4.2 2.2-1.3 2.2-3 2.4-5 0.5 0.6 1 1.1 1.5 1.7q1.5-1.5 3-3 0.3 0 0.5 0c0 1 0.1 2 0 3-0.2 0.7-0.7 1.4-1 2.1-0.4 1.2-0.8 2.4-1.2 3.7-3.7-0.4-5.2 1.1-5.3 6.3 1.3-1.6 2.5-3.1 3.8-4.8 0.1 0.2 0.2 0.4 0.2 0.7 0.1 1.8 0.5 2 2.3 1.2 1.8-0.7 2.2-1.3 3.4-4 1 1.3 1.1 2.6 0.2 4.6 2 1.4 3.2 3.1 2.7 5.5-0.4 2.2-4.1 4.4-6.6 3.8-1.3-0.3-2.3-0.9-2.5-2.3-0.1-1.3 0.5-2.3 1.9-2.7 1.8-0.5 2.5 0.6 2.9 1.8 1.6-0.3 2.2-1.2 1.9-2.5-0.6-2.1-2.6-3.1-5.5-2.6 0.3 0.6 0.7 1.2 1 1.9-3.6 0.4-5.1 1.6-5.6 4.7-0.2 1.9-0.2 3.8-0.4 6.1 4.5-2.6 9.9-2.6 13.4-6.2 0.4 1.4 0.4 1.4-1.8 4.6q0.9 0.6 1.9 1.3c2.3 1.7 3.8 3.9 3.9 6.6 0.2 2.7 0.7 5.3 2.6 7.9-2.6-0.2-4.4-1.3-5.9-2.9q-1 2.3-2.1 4.4-0.2 0.1-0.5 0.2c-0.6-1.9-1.3-3.7-2.1-5.7-2.5-0.5-3.7-1.7-3.4-3.5 0.2-1.2 1.4-2.2 2.8-2.2 1.4 0 1.9 0.7 2.2 2.7 1.9 0.1 2.9-0.6 3.3-2.2 0.4-1.9-1.5-4.4-3.9-5.2q-0.6 1.5-1.3 3c-0.9-1-1.5-1.9-2.5-2.4-0.6-0.4-1.7-0.3-2.5 0-2.3 0.8-3.8 2.4-4 4.6-0.1 2.1 0.1 4.3 0.4 6.4 0.3 1.9 1.7 3.1 3.2 3.1 0.4 0 0.7-0.2 1.2-0.3-0.2-0.2-0.3-0.4-0.4-0.5-1.1-0.7-1.6-1.5-0.7-2.5 0.8-0.9 2.6-1 3.6-0.3 2 1.3 1.8 3.9-0.4 5-2.3 1.1-4.6 0.8-6.2-0.9-0.5-0.5-0.8-1-1.3-1.6z"/><path fill-rule="evenodd" class="a" d="m1.4 92.4l32.7-92.1 33.8 92.1"/><path fill-rule="evenodd" class="a" d="m92.1 85.1c-0.6 0.7-1.2 1.4-1.8 2-1.3 1.2-2.9 1.4-4.6 0.9-1.5-0.4-2.7-1.1-2.9-2.7-0.3-1.4 0.9-3.1 2.5-3.1 0.9 0 2.2 0.5 2.5 1.1 0.3 0.6-0.3 1.7-0.6 2.8 0.6 0.4 1.6 0.3 2.4-0.5 0.6-0.7 1.2-1.5 1.3-2.3 0.3-2.2 0.5-4.5 0.3-6.7-0.1-2.1-1.6-3.6-3.7-4.4-2.3-0.9-3.7-0.2-5 2.6-0.6-1.2-1.1-2.2-1.6-3.2-2.1 0.4-4.1 3-3.8 5 0.3 1.7 1.4 2.5 2.8 2.4 0.8-1.1 1.1-2.2 1.9-2.5 0.7-0.3 2.2 0 2.8 0.5 1.7 1.4 0.9 3.9-1.3 4.6-0.5 0.2-1.1 0.3-1.3 0.3-0.7 2.1-1.3 3.8-2 5.6q-0.2 0-0.5-0.1c-0.7-1.4-1.4-2.8-2-4-1.8 1-3.7 2-5.6 3 0.7-2.5 1.4-4.5 1.9-6.6 0.3-1.2 0.2-2.4 0.6-3.6 0.8-2.6 2.7-4.6 5.2-5.9-0.9-1.6-1.6-3-2.4-4.4q0.3-0.2 0.6-0.4c3.4 3.6 8.9 3.6 13.2 6.1 0.2-2.7 0.4-5.2-0.6-7.6-0.9-2.2-2.3-3-5.2-3 0.4-0.6 0.7-1.2 1-1.8-1.9-0.8-4.2-0.1-5.1 1.6-0.8 1.6-0.3 2.9 1.4 3.4 0.1 0 0.3-0.1 0.3-0.1 0.2-1 0.7-2 1.9-1.8 0.8 0.1 2 0.6 2.3 1.2 0.4 0.8 0.2 2-0.2 2.8-0.3 0.5-1.4 0.9-2.2 1.1-2 0.3-5-1.3-5.9-2.9-0.9-1.8-0.4-4.4 1.4-5.7 0.7-0.5 0.8-0.9 0.6-1.7-0.2-1.2 0-2.4 0.2-3.7 1.2 2.3 2.4 4.4 5.8 4.4 0.1-0.8 0.2-1.6 0.3-2.3 1.4 1.6 2.6 3.2 4.1 5.1 0.1-5.2-2.6-7.5-6.1-6.3 1.2-2.4-1-3.8-1.6-5.7-0.3-1.1-0.2-2.2-0.2-3.3q0.2-0.1 0.5-0.1c1 1 2 2 3.1 3.1 0.5-0.6 1.1-1.2 1.9-2.1-0.2 2.2-0.2 4 2.1 5.4 0-2.8 0.6-5.4-0.3-8-0.3-0.7-1-1.3-1.7-1.9-0.2-0.2-0.8-0.2-1.2-0.3-0.1 0.3-0.2 0.7-0.3 1-0.2 0.4-0.3 0.9-0.5 1-0.5 0.1-1.3 0-1.4-0.3-0.5-0.8-1-1.8-0.9-2.6 0.1-0.6 1-1.2 1.7-1.7 0.4-0.2 1-0.2 1.3-0.3q-0.8-2-1.6-4 0.2-0.1 0.5-0.2 2.3 1.3 4.6 2.5c0.6-2.5-0.4-4.1-3.9-5.6 0.7-0.3 1.3-0.7 2.1-1.1-2-3.9 0.8-7.1 2.6-10.9 1.6 3.8 4.6 6.8 2.5 10.9 0.8 0.4 1.4 0.7 2.2 1.1-3 1.1-4.6 2.8-4 5.7 1.6-0.9 3.1-1.7 4.9-2.7 0.3 1.7-0.2 3-1.7 4.2 0.8 0.1 1.5 0.1 1.9 0.4 0.7 0.6 1.6 1.3 1.6 2 0.1 0.8-0.4 1.7-1 2.4-0.7 0.7-1.7 0.3-1.8-0.6 0-0.4 0-0.7 0.1-1.1-1.3-0.4-2.3 0.2-2.6 1-0.6 1.6-1 3.2-1.1 4.8-0.2 1.3 0.1 2.7 0.2 4.2 2.2-1.3 2.2-3 2.4-5 0.5 0.6 1 1.1 1.5 1.7q1.5-1.5 3-3 0.3 0 0.5 0c0 1 0.1 2 0 3-0.2 0.7-0.7 1.4-1 2.1-0.4 1.2-0.8 2.4-1.2 3.7-3.7-0.4-5.2 1.1-5.3 6.3 1.3-1.6 2.5-3.1 3.8-4.8 0.1 0.2 0.2 0.4 0.2 0.7 0.1 1.8 0.5 2 2.3 1.2 1.8-0.7 2.2-1.3 3.4-4 1 1.3 1.1 2.6 0.2 4.6 2 1.4 3.2 3.1 2.7 5.5-0.4 2.2-4.1 4.4-6.6 3.8-1.3-0.3-2.3-0.9-2.5-2.3-0.1-1.3 0.5-2.3 1.9-2.7 1.8-0.5 2.5 0.6 2.9 1.8 1.6-0.3 2.2-1.2 1.9-2.5-0.6-2.1-2.6-3.1-5.5-2.6 0.3 0.6 0.7 1.2 1 1.9-3.6 0.4-5.1 1.6-5.6 4.7-0.2 1.9-0.2 3.8-0.4 6.1 4.5-2.6 9.9-2.6 13.4-6.2 0.4 1.4 0.4 1.4-1.8 4.6q0.9 0.6 1.9 1.3c2.3 1.7 3.8 3.9 3.9 6.6 0.2 2.7 0.7 5.3 2.6 7.9-2.6-0.2-4.4-1.3-5.9-2.9q-1 2.3-2.1 4.4-0.2 0.1-0.5 0.2c-0.6-1.9-1.3-3.7-2.1-5.7-2.5-0.5-3.7-1.7-3.4-3.5 0.2-1.2 1.4-2.2 2.8-2.2 1.4 0 1.9 0.7 2.2 2.7 1.9 0.1 2.9-0.6 3.3-2.2 0.4-1.9-1.5-4.4-3.9-5.2q-0.6 1.5-1.3 3c-0.9-1-1.5-1.9-2.5-2.4-0.6-0.4-1.7-0.3-2.5 0-2.3 0.8-3.8 2.4-4 4.6-0.1 2.1 0.1 4.3 0.4 6.4 0.3 1.9 1.7 3.1 3.2 3.1 0.4 0 0.7-0.2 1.2-0.3-0.2-0.2-0.3-0.4-0.4-0.5-1.1-0.7-1.6-1.5-0.7-2.5 0.8-0.9 2.6-1 3.6-0.3 2 1.3 1.8 3.9-0.4 5-2.3 1.1-4.6 0.8-6.2-0.9-0.5-0.5-0.8-1-1.3-1.6z"/><path fill-rule="evenodd" class="a" d="m59.4 92.4l32.7-92.1 33.8 92.1"/><path fill-rule="evenodd" class="a" d="m150.1 85.1c-0.6 0.7-1.2 1.4-1.8 2-1.3 1.2-2.9 1.4-4.6 0.9-1.5-0.4-2.7-1.1-2.9-2.7-0.3-1.4 0.9-3.1 2.5-3.1 0.9 0 2.2 0.5 2.5 1.1 0.3 0.6-0.3 1.7-0.6 2.8 0.6 0.4 1.6 0.3 2.4-0.5 0.6-0.7 1.2-1.5 1.3-2.3 0.3-2.2 0.5-4.5 0.3-6.7-0.1-2.1-1.6-3.6-3.7-4.4-2.3-0.9-3.7-0.2-5 2.6-0.6-1.2-1.1-2.2-1.6-3.2-2.1 0.4-4.1 3-3.8 5 0.3 1.7 1.4 2.5 2.8 2.4 0.8-1.1 1.1-2.2 1.9-2.5 0.7-0.3 2.2 0 2.8 0.5 1.7 1.4 0.9 3.9-1.3 4.6-0.5 0.2-1.1 0.3-1.3 0.3-0.7 2.1-1.3 3.8-2 5.6q-0.2 0-0.5-0.1c-0.7-1.4-1.4-2.8-2-4-1.8 1-3.7 2-5.6 3 0.7-2.5 1.4-4.5 1.9-6.6 0.3-1.2 0.2-2.4 0.6-3.6 0.8-2.6 2.7-4.6 5.2-5.9-0.9-1.6-1.6-3-2.4-4.4q0.3-0.2 0.6-0.4c3.4 3.6 8.9 3.6 13.2 6.1 0.2-2.7 0.4-5.2-0.6-7.6-0.9-2.2-2.3-3-5.2-3 0.4-0.6 0.7-1.2 1-1.8-1.9-0.8-4.2-0.1-5.1 1.6-0.8 1.6-0.3 2.9 1.4 3.4 0.1 0 0.3-0.1 0.3-0.1 0.2-1 0.7-2 1.9-1.8 0.8 0.1 2 0.6 2.3 1.2 0.4 0.8 0.2 2-0.2 2.8-0.3 0.5-1.4 0.9-2.2 1.1-2 0.3-5-1.3-5.9-2.9-0.9-1.8-0.4-4.4 1.4-5.7 0.7-0.5 0.8-0.9 0.6-1.7-0.2-1.2 0-2.4 0.2-3.7 1.2 2.3 2.4 4.4 5.8 4.4 0.1-0.8 0.2-1.6 0.3-2.3 1.4 1.6 2.6 3.2 4.1 5.1 0.1-5.2-2.6-7.5-6.1-6.3 1.2-2.4-1-3.8-1.6-5.7-0.3-1.1-0.2-2.2-0.2-3.3q0.2-0.1 0.5-0.1c1 1 2 2 3.1 3.1 0.5-0.6 1.1-1.2 1.9-2.1-0.2 2.2-0.2 4 2.1 5.4 0-2.8 0.6-5.4-0.3-8-0.3-0.7-1-1.3-1.7-1.9-0.2-0.2-0.8-0.2-1.2-0.3-0.1 0.3-0.2 0.7-0.3 1-0.2 0.4-0.3 0.9-0.5 1-0.5 0.1-1.3 0-1.4-0.3-0.5-0.8-1-1.8-0.9-2.6 0.1-0.6 1-1.2 1.7-1.7 0.4-0.2 1-0.2 1.3-0.3q-0.8-2-1.6-4 0.2-0.1 0.5-0.2 2.3 1.3 4.6 2.5c0.6-2.5-0.4-4.1-3.9-5.6 0.7-0.3 1.3-0.7 2.1-1.1-2-3.9 0.8-7.1 2.6-10.9 1.6 3.8 4.6 6.8 2.5 10.9 0.8 0.4 1.4 0.7 2.2 1.1-3 1.1-4.6 2.8-4 5.7 1.6-0.9 3.1-1.7 4.9-2.7 0.3 1.7-0.2 3-1.7 4.2 0.8 0.1 1.5 0.1 1.9 0.4 0.7 0.6 1.6 1.3 1.6 2 0.1 0.8-0.4 1.7-1 2.4-0.7 0.7-1.7 0.3-1.8-0.6 0-0.4 0-0.7 0.1-1.1-1.3-0.4-2.3 0.2-2.6 1-0.6 1.6-1 3.2-1.1 4.8-0.2 1.3 0.1 2.7 0.2 4.2 2.2-1.3 2.2-3 2.4-5 0.5 0.6 1 1.1 1.5 1.7q1.5-1.5 3-3 0.3 0 0.5 0c0 1 0.1 2 0 3-0.2 0.7-0.7 1.4-1 2.1-0.4 1.2-0.8 2.4-1.2 3.7-3.7-0.4-5.2 1.1-5.3 6.3 1.3-1.6 2.5-3.1 3.8-4.8 0.1 0.2 0.2 0.4 0.2 0.7 0.1 1.8 0.5 2 2.3 1.2 1.8-0.7 2.2-1.3 3.4-4 1 1.3 1.1 2.6 0.2 4.6 2 1.4 3.2 3.1 2.7 5.5-0.4 2.2-4.1 4.4-6.6 3.8-1.3-0.3-2.3-0.9-2.5-2.3-0.1-1.3 0.5-2.3 1.9-2.7 1.8-0.5 2.5 0.6 2.9 1.8 1.6-0.3 2.2-1.2 1.9-2.5-0.6-2.1-2.6-3.1-5.5-2.6 0.3 0.6 0.7 1.2 1 1.9-3.6 0.4-5.1 1.6-5.6 4.7-0.2 1.9-0.2 3.8-0.4 6.1 4.5-2.6 9.9-2.6 13.4-6.2 0.4 1.4 0.4 1.4-1.8 4.6q0.9 0.6 1.9 1.3c2.3 1.7 3.8 3.9 3.9 6.6 0.2 2.7 0.7 5.3 2.6 7.9-2.6-0.2-4.4-1.3-5.9-2.9q-1 2.3-2.1 4.4-0.2 0.1-0.5 0.2c-0.6-1.9-1.3-3.7-2.1-5.7-2.5-0.5-3.7-1.7-3.4-3.5 0.2-1.2 1.4-2.2 2.8-2.2 1.4 0 1.9 0.7 2.2 2.7 1.9 0.1 2.9-0.6 3.3-2.2 0.4-1.9-1.5-4.4-3.9-5.2q-0.6 1.5-1.3 3c-0.9-1-1.5-1.9-2.5-2.4-0.6-0.4-1.7-0.3-2.5 0-2.3 0.8-3.8 2.4-4 4.6-0.1 2.1 0.1 4.3 0.4 6.4 0.3 1.9 1.7 3.1 3.2 3.1 0.4 0 0.7-0.2 1.2-0.3-0.2-0.2-0.3-0.4-0.4-0.5-1.1-0.7-1.6-1.5-0.7-2.5 0.8-0.9 2.6-1 3.6-0.3 2 1.3 1.8 3.9-0.4 5-2.3 1.1-4.6 0.8-6.2-0.9-0.5-0.5-0.8-1-1.3-1.6z"/><path fill-rule="evenodd" class="a" d="m117.4 92.4l32.7-92.1 33.8 92.1"/><path fill-rule="evenodd" class="a" d="m208.1 85.1c-0.6 0.7-1.2 1.4-1.8 2-1.3 1.2-2.9 1.4-4.6 0.9-1.5-0.4-2.7-1.1-2.9-2.7-0.3-1.4 0.9-3.1 2.5-3.1 0.9 0 2.2 0.5 2.5 1.1 0.3 0.6-0.3 1.7-0.6 2.8 0.6 0.4 1.6 0.3 2.4-0.5 0.6-0.7 1.2-1.5 1.3-2.3 0.3-2.2 0.5-4.5 0.3-6.7-0.1-2.1-1.6-3.6-3.7-4.4-2.3-0.9-3.7-0.2-5 2.6-0.6-1.2-1.1-2.2-1.6-3.2-2.1 0.4-4.1 3-3.8 5 0.3 1.7 1.4 2.5 2.8 2.4 0.8-1.1 1.1-2.2 1.9-2.5 0.7-0.3 2.2 0 2.8 0.5 1.7 1.4 0.9 3.9-1.3 4.6-0.5 0.2-1.1 0.3-1.3 0.3-0.7 2.1-1.3 3.8-2 5.6q-0.2 0-0.5-0.1c-0.7-1.4-1.4-2.8-2-4-1.8 1-3.7 2-5.6 3 0.7-2.5 1.4-4.5 1.9-6.6 0.3-1.2 0.2-2.4 0.6-3.6 0.8-2.6 2.7-4.6 5.2-5.9-0.9-1.6-1.6-3-2.4-4.4q0.3-0.2 0.6-0.4c3.4 3.6 8.9 3.6 13.2 6.1 0.2-2.7 0.4-5.2-0.6-7.6-0.9-2.2-2.3-3-5.2-3 0.4-0.6 0.7-1.2 1-1.8-1.9-0.8-4.2-0.1-5.1 1.6-0.8 1.6-0.3 2.9 1.4 3.4 0.1 0 0.3-0.1 0.3-0.1 0.2-1 0.7-2 1.9-1.8 0.8 0.1 2 0.6 2.3 1.2 0.4 0.8 0.2 2-0.2 2.8-0.3 0.5-1.4 0.9-2.2 1.1-2 0.3-5-1.3-5.9-2.9-0.9-1.8-0.4-4.4 1.4-5.7 0.7-0.5 0.8-0.9 0.6-1.7-0.2-1.2 0-2.4 0.2-3.7 1.2 2.3 2.4 4.4 5.8 4.4 0.1-0.8 0.2-1.6 0.3-2.3 1.4 1.6 2.6 3.2 4.1 5.1 0.1-5.2-2.6-7.5-6.1-6.3 1.2-2.4-1-3.8-1.6-5.7-0.3-1.1-0.2-2.2-0.2-3.3q0.2-0.1 0.5-0.1c1 1 2 2 3.1 3.1 0.5-0.6 1.1-1.2 1.9-2.1-0.2 2.2-0.2 4 2.1 5.4 0-2.8 0.6-5.4-0.3-8-0.3-0.7-1-1.3-1.7-1.9-0.2-0.2-0.8-0.2-1.2-0.3-0.1 0.3-0.2 0.7-0.3 1-0.2 0.4-0.3 0.9-0.5 1-0.5 0.1-1.3 0-1.4-0.3-0.5-0.8-1-1.8-0.9-2.6 0.1-0.6 1-1.2 1.7-1.7 0.4-0.2 1-0.2 1.3-0.3q-0.8-2-1.6-4 0.2-0.1 0.5-0.2 2.3 1.3 4.6 2.5c0.6-2.5-0.4-4.1-3.9-5.6 0.7-0.3 1.3-0.7 2.1-1.1-2-3.9 0.8-7.1 2.6-10.9 1.6 3.8 4.6 6.8 2.5 10.9 0.8 0.4 1.4 0.7 2.2 1.1-3 1.1-4.6 2.8-4 5.7 1.6-0.9 3.1-1.7 4.9-2.7 0.3 1.7-0.2 3-1.7 4.2 0.8 0.1 1.5 0.1 1.9 0.4 0.7 0.6 1.6 1.3 1.6 2 0.1 0.8-0.4 1.7-1 2.4-0.7 0.7-1.7 0.3-1.8-0.6 0-0.4 0-0.7 0.1-1.1-1.3-0.4-2.3 0.2-2.6 1-0.6 1.6-1 3.2-1.1 4.8-0.2 1.3 0.1 2.7 0.2 4.2 2.2-1.3 2.2-3 2.4-5 0.5 0.6 1 1.1 1.5 1.7q1.5-1.5 3-3 0.3 0 0.5 0c0 1 0.1 2 0 3-0.2 0.7-0.7 1.4-1 2.1-0.4 1.2-0.8 2.4-1.2 3.7-3.7-0.4-5.2 1.1-5.3 6.3 1.3-1.6 2.5-3.1 3.8-4.8 0.1 0.2 0.2 0.4 0.2 0.7 0.1 1.8 0.5 2 2.3 1.2 1.8-0.7 2.2-1.3 3.4-4 1 1.3 1.1 2.6 0.2 4.6 2 1.4 3.2 3.1 2.7 5.5-0.4 2.2-4.1 4.4-6.6 3.8-1.3-0.3-2.3-0.9-2.5-2.3-0.1-1.3 0.5-2.3 1.9-2.7 1.8-0.5 2.5 0.6 2.9 1.8 1.6-0.3 2.2-1.2 1.9-2.5-0.6-2.1-2.6-3.1-5.5-2.6 0.3 0.6 0.7 1.2 1 1.9-3.6 0.4-5.1 1.6-5.6 4.7-0.2 1.9-0.2 3.8-0.4 6.1 4.5-2.6 9.9-2.6 13.4-6.2 0.4 1.4 0.4 1.4-1.8 4.6q0.9 0.6 1.9 1.3c2.3 1.7 3.8 3.9 3.9 6.6 0.2 2.7 0.7 5.3 2.6 7.9-2.6-0.2-4.4-1.3-5.9-2.9q-1 2.3-2.1 4.4-0.2 0.1-0.5 0.2c-0.6-1.9-1.3-3.7-2.1-5.7-2.5-0.5-3.7-1.7-3.4-3.5 0.2-1.2 1.4-2.2 2.8-2.2 1.4 0 1.9 0.7 2.2 2.7 1.9 0.1 2.9-0.6 3.3-2.2 0.4-1.9-1.5-4.4-3.9-5.2q-0.6 1.5-1.3 3c-0.9-1-1.5-1.9-2.5-2.4-0.6-0.4-1.7-0.3-2.5 0-2.3 0.8-3.8 2.4-4 4.6-0.1 2.1 0.1 4.3 0.4 6.4 0.3 1.9 1.7 3.1 3.2 3.1 0.4 0 0.7-0.2 1.2-0.3-0.2-0.2-0.3-0.4-0.4-0.5-1.1-0.7-1.6-1.5-0.7-2.5 0.8-0.9 2.6-1 3.6-0.3 2 1.3 1.8 3.9-0.4 5-2.3 1.1-4.6 0.8-6.2-0.9-0.5-0.5-0.8-1-1.3-1.6z"/><path fill-rule="evenodd" class="a" d="m175.4 92.4l32.7-92.1 33.8 92.1"/><path fill-rule="evenodd" class="a" d="m266.1 85.1c-0.6 0.7-1.2 1.4-1.8 2-1.3 1.2-2.9 1.4-4.6 0.9-1.5-0.4-2.7-1.1-2.9-2.7-0.3-1.4 0.9-3.1 2.5-3.1 0.9 0 2.2 0.5 2.5 1.1 0.3 0.6-0.3 1.7-0.6 2.8 0.6 0.4 1.6 0.3 2.4-0.5 0.6-0.7 1.2-1.5 1.3-2.3 0.3-2.2 0.5-4.5 0.3-6.7-0.1-2.1-1.6-3.6-3.7-4.4-2.3-0.9-3.7-0.2-5 2.6-0.6-1.2-1.1-2.2-1.6-3.2-2.1 0.4-4.1 3-3.8 5 0.3 1.7 1.4 2.5 2.8 2.4 0.8-1.1 1.1-2.2 1.9-2.5 0.7-0.3 2.2 0 2.8 0.5 1.7 1.4 0.9 3.9-1.3 4.6-0.5 0.2-1.1 0.3-1.3 0.3-0.7 2.1-1.3 3.8-2 5.6q-0.2 0-0.5-0.1c-0.7-1.4-1.4-2.8-2-4-1.8 1-3.7 2-5.6 3 0.7-2.5 1.4-4.5 1.9-6.6 0.3-1.2 0.2-2.4 0.6-3.6 0.8-2.6 2.7-4.6 5.2-5.9-0.9-1.6-1.6-3-2.4-4.4q0.3-0.2 0.6-0.4c3.4 3.6 8.9 3.6 13.2 6.1 0.2-2.7 0.4-5.2-0.6-7.6-0.9-2.2-2.3-3-5.2-3 0.4-0.6 0.7-1.2 1-1.8-1.9-0.8-4.2-0.1-5.1 1.6-0.8 1.6-0.3 2.9 1.4 3.4 0.1 0 0.3-0.1 0.3-0.1 0.2-1 0.7-2 1.9-1.8 0.8 0.1 2 0.6 2.3 1.2 0.4 0.8 0.2 2-0.2 2.8-0.3 0.5-1.4 0.9-2.2 1.1-2 0.3-5-1.3-5.9-2.9-0.9-1.8-0.4-4.4 1.4-5.7 0.7-0.5 0.8-0.9 0.6-1.7-0.2-1.2 0-2.4 0.2-3.7 1.2 2.3 2.4 4.4 5.8 4.4 0.1-0.8 0.2-1.6 0.3-2.3 1.4 1.6 2.6 3.2 4.1 5.1 0.1-5.2-2.6-7.5-6.1-6.3 1.2-2.4-1-3.8-1.6-5.7-0.3-1.1-0.2-2.2-0.2-3.3q0.2-0.1 0.5-0.1c1 1 2 2 3.1 3.1 0.5-0.6 1.1-1.2 1.9-2.1-0.2 2.2-0.2 4 2.1 5.4 0-2.8 0.6-5.4-0.3-8-0.3-0.7-1-1.3-1.7-1.9-0.2-0.2-0.8-0.2-1.2-0.3-0.1 0.3-0.2 0.7-0.3 1-0.2 0.4-0.3 0.9-0.5 1-0.5 0.1-1.3 0-1.4-0.3-0.5-0.8-1-1.8-0.9-2.6 0.1-0.6 1-1.2 1.7-1.7 0.4-0.2 1-0.2 1.3-0.3q-0.8-2-1.6-4 0.2-0.1 0.5-0.2 2.3 1.3 4.6 2.5c0.6-2.5-0.4-4.1-3.9-5.6 0.7-0.3 1.3-0.7 2.1-1.1-2-3.9 0.8-7.1 2.6-10.9 1.6 3.8 4.6 6.8 2.5 10.9 0.8 0.4 1.4 0.7 2.2 1.1-3 1.1-4.6 2.8-4 5.7 1.6-0.9 3.1-1.7 4.9-2.7 0.3 1.7-0.2 3-1.7 4.2 0.8 0.1 1.5 0.1 1.9 0.4 0.7 0.6 1.6 1.3 1.6 2 0.1 0.8-0.4 1.7-1 2.4-0.7 0.7-1.7 0.3-1.8-0.6 0-0.4 0-0.7 0.1-1.1-1.3-0.4-2.3 0.2-2.6 1-0.6 1.6-1 3.2-1.1 4.8-0.2 1.3 0.1 2.7 0.2 4.2 2.2-1.3 2.2-3 2.4-5 0.5 0.6 1 1.1 1.5 1.7q1.5-1.5 3-3 0.3 0 0.5 0c0 1 0.1 2 0 3-0.2 0.7-0.7 1.4-1 2.1-0.4 1.2-0.8 2.4-1.2 3.7-3.7-0.4-5.2 1.1-5.3 6.3 1.3-1.6 2.5-3.1 3.8-4.8 0.1 0.2 0.2 0.4 0.2 0.7 0.1 1.8 0.5 2 2.3 1.2 1.8-0.7 2.2-1.3 3.4-4 1 1.3 1.1 2.6 0.2 4.6 2 1.4 3.2 3.1 2.7 5.5-0.4 2.2-4.1 4.4-6.6 3.8-1.3-0.3-2.3-0.9-2.5-2.3-0.1-1.3 0.5-2.3 1.9-2.7 1.8-0.5 2.5 0.6 2.9 1.8 1.6-0.3 2.2-1.2 1.9-2.5-0.6-2.1-2.6-3.1-5.5-2.6 0.3 0.6 0.7 1.2 1 1.9-3.6 0.4-5.1 1.6-5.6 4.7-0.2 1.9-0.2 3.8-0.4 6.1 4.5-2.6 9.9-2.6 13.4-6.2 0.4 1.4 0.4 1.4-1.8 4.6q0.9 0.6 1.9 1.3c2.3 1.7 3.8 3.9 3.9 6.6 0.2 2.7 0.7 5.3 2.6 7.9-2.6-0.2-4.4-1.3-5.9-2.9q-1 2.3-2.1 4.4-0.2 0.1-0.5 0.2c-0.6-1.9-1.3-3.7-2.1-5.7-2.5-0.5-3.7-1.7-3.4-3.5 0.2-1.2 1.4-2.2 2.8-2.2 1.4 0 1.9 0.7 2.2 2.7 1.9 0.1 2.9-0.6 3.3-2.2 0.4-1.9-1.5-4.4-3.9-5.2q-0.6 1.5-1.3 3c-0.9-1-1.5-1.9-2.5-2.4-0.6-0.4-1.7-0.3-2.5 0-2.3 0.8-3.8 2.4-4 4.6-0.1 2.1 0.1 4.3 0.4 6.4 0.3 1.9 1.7 3.1 3.2 3.1 0.4 0 0.7-0.2 1.2-0.3-0.2-0.2-0.3-0.4-0.4-0.5-1.1-0.7-1.6-1.5-0.7-2.5 0.8-0.9 2.6-1 3.6-0.3 2 1.3 1.8 3.9-0.4 5-2.3 1.1-4.6 0.8-6.2-0.9-0.5-0.5-0.8-1-1.3-1.6z"/><path fill-rule="evenodd" class="a" d="m233.4 92.4l32.7-92.1 33.8 92.1"/><path fill-rule="evenodd" class="a" d="m324.1 85.1c-0.6 0.7-1.2 1.4-1.8 2-1.3 1.2-2.9 1.4-4.6 0.9-1.5-0.4-2.7-1.1-2.9-2.7-0.3-1.4 0.9-3.1 2.5-3.1 0.9 0 2.2 0.5 2.5 1.1 0.3 0.6-0.3 1.7-0.6 2.8 0.6 0.4 1.6 0.3 2.4-0.5 0.6-0.7 1.2-1.5 1.3-2.3 0.3-2.2 0.5-4.5 0.3-6.7-0.1-2.1-1.6-3.6-3.7-4.4-2.3-0.9-3.7-0.2-5 2.6-0.6-1.2-1.1-2.2-1.6-3.2-2.1 0.4-4.1 3-3.8 5 0.3 1.7 1.4 2.5 2.8 2.4 0.8-1.1 1.1-2.2 1.9-2.5 0.7-0.3 2.2 0 2.8 0.5 1.7 1.4 0.9 3.9-1.3 4.6-0.5 0.2-1.1 0.3-1.3 0.3-0.7 2.1-1.3 3.8-2 5.6q-0.2 0-0.5-0.1c-0.7-1.4-1.4-2.8-2-4-1.8 1-3.7 2-5.6 3 0.7-2.5 1.4-4.5 1.9-6.6 0.3-1.2 0.2-2.4 0.6-3.6 0.8-2.6 2.7-4.6 5.2-5.9-0.9-1.6-1.6-3-2.4-4.4q0.3-0.2 0.6-0.4c3.4 3.6 8.9 3.6 13.2 6.1 0.2-2.7 0.4-5.2-0.6-7.6-0.9-2.2-2.3-3-5.2-3 0.4-0.6 0.7-1.2 1-1.8-1.9-0.8-4.2-0.1-5.1 1.6-0.8 1.6-0.3 2.9 1.4 3.4 0.1 0 0.3-0.1 0.3-0.1 0.2-1 0.7-2 1.9-1.8 0.8 0.1 2 0.6 2.3 1.2 0.4 0.8 0.2 2-0.2 2.8-0.3 0.5-1.4 0.9-2.2 1.1-2 0.3-5-1.3-5.9-2.9-0.9-1.8-0.4-4.4 1.4-5.7 0.7-0.5 0.8-0.9 0.6-1.7-0.2-1.2 0-2.4 0.2-3.7 1.2 2.3 2.4 4.4 5.8 4.4 0.1-0.8 0.2-1.6 0.3-2.3 1.4 1.6 2.6 3.2 4.1 5.1 0.1-5.2-2.6-7.5-6.1-6.3 1.2-2.4-1-3.8-1.6-5.7-0.3-1.1-0.2-2.2-0.2-3.3q0.2-0.1 0.5-0.1c1 1 2 2 3.1 3.1 0.5-0.6 1.1-1.2 1.9-2.1-0.2 2.2-0.2 4 2.1 5.4 0-2.8 0.6-5.4-0.3-8-0.3-0.7-1-1.3-1.7-1.9-0.2-0.2-0.8-0.2-1.2-0.3-0.1 0.3-0.2 0.7-0.3 1-0.2 0.4-0.3 0.9-0.5 1-0.5 0.1-1.3 0-1.4-0.3-0.5-0.8-1-1.8-0.9-2.6 0.1-0.6 1-1.2 1.7-1.7 0.4-0.2 1-0.2 1.3-0.3q-0.8-2-1.6-4 0.2-0.1 0.5-0.2 2.3 1.3 4.6 2.5c0.6-2.5-0.4-4.1-3.9-5.6 0.7-0.3 1.3-0.7 2.1-1.1-2-3.9 0.8-7.1 2.6-10.9 1.6 3.8 4.6 6.8 2.5 10.9 0.8 0.4 1.4 0.7 2.2 1.1-3 1.1-4.6 2.8-4 5.7 1.6-0.9 3.1-1.7 4.9-2.7 0.3 1.7-0.2 3-1.7 4.2 0.8 0.1 1.5 0.1 1.9 0.4 0.7 0.6 1.6 1.3 1.6 2 0.1 0.8-0.4 1.7-1 2.4-0.7 0.7-1.7 0.3-1.8-0.6 0-0.4 0-0.7 0.1-1.1-1.3-0.4-2.3 0.2-2.6 1-0.6 1.6-1 3.2-1.1 4.8-0.2 1.3 0.1 2.7 0.2 4.2 2.2-1.3 2.2-3 2.4-5 0.5 0.6 1 1.1 1.5 1.7q1.5-1.5 3-3 0.3 0 0.5 0c0 1 0.1 2 0 3-0.2 0.7-0.7 1.4-1 2.1-0.4 1.2-0.8 2.4-1.2 3.7-3.7-0.4-5.2 1.1-5.3 6.3 1.3-1.6 2.5-3.1 3.8-4.8 0.1 0.2 0.2 0.4 0.2 0.7 0.1 1.8 0.5 2 2.3 1.2 1.8-0.7 2.2-1.3 3.4-4 1 1.3 1.1 2.6 0.2 4.6 2 1.4 3.2 3.1 2.7 5.5-0.4 2.2-4.1 4.4-6.6 3.8-1.3-0.3-2.3-0.9-2.5-2.3-0.1-1.3 0.5-2.3 1.9-2.7 1.8-0.5 2.5 0.6 2.9 1.8 1.6-0.3 2.2-1.2 1.9-2.5-0.6-2.1-2.6-3.1-5.5-2.6 0.3 0.6 0.7 1.2 1 1.9-3.6 0.4-5.1 1.6-5.6 4.7-0.2 1.9-0.2 3.8-0.4 6.1 4.5-2.6 9.9-2.6 13.4-6.2 0.4 1.4 0.4 1.4-1.8 4.6q0.9 0.6 1.9 1.3c2.3 1.7 3.8 3.9 3.9 6.6 0.2 2.7 0.7 5.3 2.6 7.9-2.6-0.2-4.4-1.3-5.9-2.9q-1 2.3-2.1 4.4-0.2 0.1-0.5 0.2c-0.6-1.9-1.3-3.7-2.1-5.7-2.5-0.5-3.7-1.7-3.4-3.5 0.2-1.2 1.4-2.2 2.8-2.2 1.4 0 1.9 0.7 2.2 2.7 1.9 0.1 2.9-0.6 3.3-2.2 0.4-1.9-1.5-4.4-3.9-5.2q-0.6 1.5-1.3 3c-0.9-1-1.5-1.9-2.5-2.4-0.6-0.4-1.7-0.3-2.5 0-2.3 0.8-3.8 2.4-4 4.6-0.1 2.1 0.1 4.3 0.4 6.4 0.3 1.9 1.7 3.1 3.2 3.1 0.4 0 0.7-0.2 1.2-0.3-0.2-0.2-0.3-0.4-0.4-0.5-1.1-0.7-1.6-1.5-0.7-2.5 0.8-0.9 2.6-1 3.6-0.3 2 1.3 1.8 3.9-0.4 5-2.3 1.1-4.6 0.8-6.2-0.9-0.5-0.5-0.8-1-1.3-1.6z"/><path fill-rule="evenodd" class="a" d="m291.4 92.4l32.7-92.1 33.8 92.1"/><path fill-rule="evenodd" class="a" d="m382.1 85.1c-0.6 0.7-1.2 1.4-1.8 2-1.3 1.2-2.9 1.4-4.6 0.9-1.5-0.4-2.7-1.1-2.9-2.7-0.3-1.4 0.9-3.1 2.5-3.1 0.9 0 2.2 0.5 2.5 1.1 0.3 0.6-0.3 1.7-0.6 2.8 0.6 0.4 1.6 0.3 2.4-0.5 0.6-0.7 1.2-1.5 1.3-2.3 0.3-2.2 0.5-4.5 0.3-6.7-0.1-2.1-1.6-3.6-3.7-4.4-2.3-0.9-3.7-0.2-5 2.6-0.6-1.2-1.1-2.2-1.6-3.2-2.1 0.4-4.1 3-3.8 5 0.3 1.7 1.4 2.5 2.8 2.4 0.8-1.1 1.1-2.2 1.9-2.5 0.7-0.3 2.2 0 2.8 0.5 1.7 1.4 0.9 3.9-1.3 4.6-0.5 0.2-1.1 0.3-1.3 0.3-0.7 2.1-1.3 3.8-2 5.6q-0.2 0-0.5-0.1c-0.7-1.4-1.4-2.8-2-4-1.8 1-3.7 2-5.6 3 0.7-2.5 1.4-4.5 1.9-6.6 0.3-1.2 0.2-2.4 0.6-3.6 0.8-2.6 2.7-4.6 5.2-5.9-0.9-1.6-1.6-3-2.4-4.4q0.3-0.2 0.6-0.4c3.4 3.6 8.9 3.6 13.2 6.1 0.2-2.7 0.4-5.2-0.6-7.6-0.9-2.2-2.3-3-5.2-3 0.4-0.6 0.7-1.2 1-1.8-1.9-0.8-4.2-0.1-5.1 1.6-0.8 1.6-0.3 2.9 1.4 3.4 0.1 0 0.3-0.1 0.3-0.1 0.2-1 0.7-2 1.9-1.8 0.8 0.1 2 0.6 2.3 1.2 0.4 0.8 0.2 2-0.2 2.8-0.3 0.5-1.4 0.9-2.2 1.1-2 0.3-5-1.3-5.9-2.9-0.9-1.8-0.4-4.4 1.4-5.7 0.7-0.5 0.8-0.9 0.6-1.7-0.2-1.2 0-2.4 0.2-3.7 1.2 2.3 2.4 4.4 5.8 4.4 0.1-0.8 0.2-1.6 0.3-2.3 1.4 1.6 2.6 3.2 4.1 5.1 0.1-5.2-2.6-7.5-6.1-6.3 1.2-2.4-1-3.8-1.6-5.7-0.3-1.1-0.2-2.2-0.2-3.3q0.2-0.1 0.5-0.1c1 1 2 2 3.1 3.1 0.5-0.6 1.1-1.2 1.9-2.1-0.2 2.2-0.2 4 2.1 5.4 0-2.8 0.6-5.4-0.3-8-0.3-0.7-1-1.3-1.7-1.9-0.2-0.2-0.8-0.2-1.2-0.3-0.1 0.3-0.2 0.7-0.3 1-0.2 0.4-0.3 0.9-0.5 1-0.5 0.1-1.3 0-1.4-0.3-0.5-0.8-1-1.8-0.9-2.6 0.1-0.6 1-1.2 1.7-1.7 0.4-0.2 1-0.2 1.3-0.3q-0.8-2-1.6-4 0.2-0.1 0.5-0.2 2.3 1.3 4.6 2.5c0.6-2.5-0.4-4.1-3.9-5.6 0.7-0.3 1.3-0.7 2.1-1.1-2-3.9 0.8-7.1 2.6-10.9 1.6 3.8 4.6 6.8 2.5 10.9 0.8 0.4 1.4 0.7 2.2 1.1-3 1.1-4.6 2.8-4 5.7 1.6-0.9 3.1-1.7 4.9-2.7 0.3 1.7-0.2 3-1.7 4.2 0.8 0.1 1.5 0.1 1.9 0.4 0.7 0.6 1.6 1.3 1.6 2 0.1 0.8-0.4 1.7-1 2.4-0.7 0.7-1.7 0.3-1.8-0.6 0-0.4 0-0.7 0.1-1.1-1.3-0.4-2.3 0.2-2.6 1-0.6 1.6-1 3.2-1.1 4.8-0.2 1.3 0.1 2.7 0.2 4.2 2.2-1.3 2.2-3 2.4-5 0.5 0.6 1 1.1 1.5 1.7q1.5-1.5 3-3 0.3 0 0.5 0c0 1 0.1 2 0 3-0.2 0.7-0.7 1.4-1 2.1-0.4 1.2-0.8 2.4-1.2 3.7-3.7-0.4-5.2 1.1-5.3 6.3 1.3-1.6 2.5-3.1 3.8-4.8 0.1 0.2 0.2 0.4 0.2 0.7 0.1 1.8 0.5 2 2.3 1.2 1.8-0.7 2.2-1.3 3.4-4 1 1.3 1.1 2.6 0.2 4.6 2 1.4 3.2 3.1 2.7 5.5-0.4 2.2-4.1 4.4-6.6 3.8-1.3-0.3-2.3-0.9-2.5-2.3-0.1-1.3 0.5-2.3 1.9-2.7 1.8-0.5 2.5 0.6 2.9 1.8 1.6-0.3 2.2-1.2 1.9-2.5-0.6-2.1-2.6-3.1-5.5-2.6 0.3 0.6 0.7 1.2 1 1.9-3.6 0.4-5.1 1.6-5.6 4.7-0.2 1.9-0.2 3.8-0.4 6.1 4.5-2.6 9.9-2.6 13.4-6.2 0.4 1.4 0.4 1.4-1.8 4.6q0.9 0.6 1.9 1.3c2.3 1.7 3.8 3.9 3.9 6.6 0.2 2.7 0.7 5.3 2.6 7.9-2.6-0.2-4.4-1.3-5.9-2.9q-1 2.3-2.1 4.4-0.2 0.1-0.5 0.2c-0.6-1.9-1.3-3.7-2.1-5.7-2.5-0.5-3.7-1.7-3.4-3.5 0.2-1.2 1.4-2.2 2.8-2.2 1.4 0 1.9 0.7 2.2 2.7 1.9 0.1 2.9-0.6 3.3-2.2 0.4-1.9-1.5-4.4-3.9-5.2q-0.6 1.5-1.3 3c-0.9-1-1.5-1.9-2.5-2.4-0.6-0.4-1.7-0.3-2.5 0-2.3 0.8-3.8 2.4-4 4.6-0.1 2.1 0.1 4.3 0.4 6.4 0.3 1.9 1.7 3.1 3.2 3.1 0.4 0 0.7-0.2 1.2-0.3-0.2-0.2-0.3-0.4-0.4-0.5-1.1-0.7-1.6-1.5-0.7-2.5 0.8-0.9 2.6-1 3.6-0.3 2 1.3 1.8 3.9-0.4 5-2.3 1.1-4.6 0.8-6.2-0.9-0.5-0.5-0.8-1-1.3-1.6z"/><path fill-rule="evenodd" class="a" d="m349.4 92.4l32.7-92.1 33.8 92.1"/><path fill-rule="evenodd" class="a" d="m440.1 85.1c-0.6 0.7-1.2 1.4-1.8 2-1.3 1.2-2.9 1.4-4.6 0.9-1.5-0.4-2.7-1.1-2.9-2.7-0.3-1.4 0.9-3.1 2.5-3.1 0.9 0 2.2 0.5 2.5 1.1 0.3 0.6-0.3 1.7-0.6 2.8 0.6 0.4 1.6 0.3 2.4-0.5 0.6-0.7 1.2-1.5 1.3-2.3 0.3-2.2 0.5-4.5 0.3-6.7-0.1-2.1-1.6-3.6-3.7-4.4-2.3-0.9-3.7-0.2-5 2.6-0.6-1.2-1.1-2.2-1.6-3.2-2.1 0.4-4.1 3-3.8 5 0.3 1.7 1.4 2.5 2.8 2.4 0.8-1.1 1.1-2.2 1.9-2.5 0.7-0.3 2.2 0 2.8 0.5 1.7 1.4 0.9 3.9-1.3 4.6-0.5 0.2-1.1 0.3-1.3 0.3-0.7 2.1-1.3 3.8-2 5.6q-0.2 0-0.5-0.1c-0.7-1.4-1.4-2.8-2-4-1.8 1-3.7 2-5.6 3 0.7-2.5 1.4-4.5 1.9-6.6 0.3-1.2 0.2-2.4 0.6-3.6 0.8-2.6 2.7-4.6 5.2-5.9-0.9-1.6-1.6-3-2.4-4.4q0.3-0.2 0.6-0.4c3.4 3.6 8.9 3.6 13.2 6.1 0.2-2.7 0.4-5.2-0.6-7.6-0.9-2.2-2.3-3-5.2-3 0.4-0.6 0.7-1.2 1-1.8-1.9-0.8-4.2-0.1-5.1 1.6-0.8 1.6-0.3 2.9 1.4 3.4 0.1 0 0.3-0.1 0.3-0.1 0.2-1 0.7-2 1.9-1.8 0.8 0.1 2 0.6 2.3 1.2 0.4 0.8 0.2 2-0.2 2.8-0.3 0.5-1.4 0.9-2.2 1.1-2 0.3-5-1.3-5.9-2.9-0.9-1.8-0.4-4.4 1.4-5.7 0.7-0.5 0.8-0.9 0.6-1.7-0.2-1.2 0-2.4 0.2-3.7 1.2 2.3 2.4 4.4 5.8 4.4 0.1-0.8 0.2-1.6 0.3-2.3 1.4 1.6 2.6 3.2 4.1 5.1 0.1-5.2-2.6-7.5-6.1-6.3 1.2-2.4-1-3.8-1.6-5.7-0.3-1.1-0.2-2.2-0.2-3.3q0.2-0.1 0.5-0.1c1 1 2 2 3.1 3.1 0.5-0.6 1.1-1.2 1.9-2.1-0.2 2.2-0.2 4 2.1 5.4 0-2.8 0.6-5.4-0.3-8-0.3-0.7-1-1.3-1.7-1.9-0.2-0.2-0.8-0.2-1.2-0.3-0.1 0.3-0.2 0.7-0.3 1-0.2 0.4-0.3 0.9-0.5 1-0.5 0.1-1.3 0-1.4-0.3-0.5-0.8-1-1.8-0.9-2.6 0.1-0.6 1-1.2 1.7-1.7 0.4-0.2 1-0.2 1.3-0.3q-0.8-2-1.6-4 0.2-0.1 0.5-0.2 2.3 1.3 4.6 2.5c0.6-2.5-0.4-4.1-3.9-5.6 0.7-0.3 1.3-0.7 2.1-1.1-2-3.9 0.8-7.1 2.6-10.9 1.6 3.8 4.6 6.8 2.5 10.9 0.8 0.4 1.4 0.7 2.2 1.1-3 1.1-4.6 2.8-4 5.7 1.6-0.9 3.1-1.7 4.9-2.7 0.3 1.7-0.2 3-1.7 4.2 0.8 0.1 1.5 0.1 1.9 0.4 0.7 0.6 1.6 1.3 1.6 2 0.1 0.8-0.4 1.7-1 2.4-0.7 0.7-1.7 0.3-1.8-0.6 0-0.4 0-0.7 0.1-1.1-1.3-0.4-2.3 0.2-2.6 1-0.6 1.6-1 3.2-1.1 4.8-0.2 1.3 0.1 2.7 0.2 4.2 2.2-1.3 2.2-3 2.4-5 0.5 0.6 1 1.1 1.5 1.7q1.5-1.5 3-3 0.3 0 0.5 0c0 1 0.1 2 0 3-0.2 0.7-0.7 1.4-1 2.1-0.4 1.2-0.8 2.4-1.2 3.7-3.7-0.4-5.2 1.1-5.3 6.3 1.3-1.6 2.5-3.1 3.8-4.8 0.1 0.2 0.2 0.4 0.2 0.7 0.1 1.8 0.5 2 2.3 1.2 1.8-0.7 2.2-1.3 3.4-4 1 1.3 1.1 2.6 0.2 4.6 2 1.4 3.2 3.1 2.7 5.5-0.4 2.2-4.1 4.4-6.6 3.8-1.3-0.3-2.3-0.9-2.5-2.3-0.1-1.3 0.5-2.3 1.9-2.7 1.8-0.5 2.5 0.6 2.9 1.8 1.6-0.3 2.2-1.2 1.9-2.5-0.6-2.1-2.6-3.1-5.5-2.6 0.3 0.6 0.7 1.2 1 1.9-3.6 0.4-5.1 1.6-5.6 4.7-0.2 1.9-0.2 3.8-0.4 6.1 4.5-2.6 9.9-2.6 13.4-6.2 0.4 1.4 0.4 1.4-1.8 4.6q0.9 0.6 1.9 1.3c2.3 1.7 3.8 3.9 3.9 6.6 0.2 2.7 0.7 5.3 2.6 7.9-2.6-0.2-4.4-1.3-5.9-2.9q-1 2.3-2.1 4.4-0.2 0.1-0.5 0.2c-0.6-1.9-1.3-3.7-2.1-5.7-2.5-0.5-3.7-1.7-3.4-3.5 0.2-1.2 1.4-2.2 2.8-2.2 1.4 0 1.9 0.7 2.2 2.7 1.9 0.1 2.9-0.6 3.3-2.2 0.4-1.9-1.5-4.4-3.9-5.2q-0.6 1.5-1.3 3c-0.9-1-1.5-1.9-2.5-2.4-0.6-0.4-1.7-0.3-2.5 0-2.3 0.8-3.8 2.4-4 4.6-0.1 2.1 0.1 4.3 0.4 6.4 0.3 1.9 1.7 3.1 3.2 3.1 0.4 0 0.7-0.2 1.2-0.3-0.2-0.2-0.3-0.4-0.4-0.5-1.1-0.7-1.6-1.5-0.7-2.5 0.8-0.9 2.6-1 3.6-0.3 2 1.3 1.8 3.9-0.4 5-2.3 1.1-4.6 0.8-6.2-0.9-0.5-0.5-0.8-1-1.3-1.6z"/><path fill-rule="evenodd" class="a" d="m407.4 92.4l32.7-92.1 33.8 92.1"/><path fill-rule="evenodd" class="a" d="m498.1 85.1c-0.6 0.7-1.2 1.4-1.8 2-1.3 1.2-2.9 1.4-4.6 0.9-1.5-0.4-2.7-1.1-2.9-2.7-0.3-1.4 0.9-3.1 2.5-3.1 0.9 0 2.2 0.5 2.5 1.1 0.3 0.6-0.3 1.7-0.6 2.8 0.6 0.4 1.6 0.3 2.4-0.5 0.6-0.7 1.2-1.5 1.3-2.3 0.3-2.2 0.5-4.5 0.3-6.7-0.1-2.1-1.6-3.6-3.7-4.4-2.3-0.9-3.7-0.2-5 2.6-0.6-1.2-1.1-2.2-1.6-3.2-2.1 0.4-4.1 3-3.8 5 0.3 1.7 1.4 2.5 2.8 2.4 0.8-1.1 1.1-2.2 1.9-2.5 0.7-0.3 2.2 0 2.8 0.5 1.7 1.4 0.9 3.9-1.3 4.6-0.5 0.2-1.1 0.3-1.3 0.3-0.7 2.1-1.3 3.8-2 5.6q-0.2 0-0.5-0.1c-0.7-1.4-1.4-2.8-2-4-1.8 1-3.7 2-5.6 3 0.7-2.5 1.4-4.5 1.9-6.6 0.3-1.2 0.2-2.4 0.6-3.6 0.8-2.6 2.7-4.6 5.2-5.9-0.9-1.6-1.6-3-2.4-4.4q0.3-0.2 0.6-0.4c3.4 3.6 8.9 3.6 13.2 6.1 0.2-2.7 0.4-5.2-0.6-7.6-0.9-2.2-2.3-3-5.2-3 0.4-0.6 0.7-1.2 1-1.8-1.9-0.8-4.2-0.1-5.1 1.6-0.8 1.6-0.3 2.9 1.4 3.4 0.1 0 0.3-0.1 0.3-0.1 0.2-1 0.7-2 1.9-1.8 0.8 0.1 2 0.6 2.3 1.2 0.4 0.8 0.2 2-0.2 2.8-0.3 0.5-1.4 0.9-2.2 1.1-2 0.3-5-1.3-5.9-2.9-0.9-1.8-0.4-4.4 1.4-5.7 0.7-0.5 0.8-0.9 0.6-1.7-0.2-1.2 0-2.4 0.2-3.7 1.2 2.3 2.4 4.4 5.8 4.4 0.1-0.8 0.2-1.6 0.3-2.3 1.4 1.6 2.6 3.2 4.1 5.1 0.1-5.2-2.6-7.5-6.1-6.3 1.2-2.4-1-3.8-1.6-5.7-0.3-1.1-0.2-2.2-0.2-3.3q0.2-0.1 0.5-0.1c1 1 2 2 3.1 3.1 0.5-0.6 1.1-1.2 1.9-2.1-0.2 2.2-0.2 4 2.1 5.4 0-2.8 0.6-5.4-0.3-8-0.3-0.7-1-1.3-1.7-1.9-0.2-0.2-0.8-0.2-1.2-0.3-0.1 0.3-0.2 0.7-0.3 1-0.2 0.4-0.3 0.9-0.5 1-0.5 0.1-1.3 0-1.4-0.3-0.5-0.8-1-1.8-0.9-2.6 0.1-0.6 1-1.2 1.7-1.7 0.4-0.2 1-0.2 1.3-0.3q-0.8-2-1.6-4 0.2-0.1 0.5-0.2 2.3 1.3 4.6 2.5c0.6-2.5-0.4-4.1-3.9-5.6 0.7-0.3 1.3-0.7 2.1-1.1-2-3.9 0.8-7.1 2.6-10.9 1.6 3.8 4.6 6.8 2.5 10.9 0.8 0.4 1.4 0.7 2.2 1.1-3 1.1-4.6 2.8-4 5.7 1.6-0.9 3.1-1.7 4.9-2.7 0.3 1.7-0.2 3-1.7 4.2 0.8 0.1 1.5 0.1 1.9 0.4 0.7 0.6 1.6 1.3 1.6 2 0.1 0.8-0.4 1.7-1 2.4-0.7 0.7-1.7 0.3-1.8-0.6 0-0.4 0-0.7 0.1-1.1-1.3-0.4-2.3 0.2-2.6 1-0.6 1.6-1 3.2-1.1 4.8-0.2 1.3 0.1 2.7 0.2 4.2 2.2-1.3 2.2-3 2.4-5 0.5 0.6 1 1.1 1.5 1.7q1.5-1.5 3-3 0.3 0 0.5 0c0 1 0.1 2 0 3-0.2 0.7-0.7 1.4-1 2.1-0.4 1.2-0.8 2.4-1.2 3.7-3.7-0.4-5.2 1.1-5.3 6.3 1.3-1.6 2.5-3.1 3.8-4.8 0.1 0.2 0.2 0.4 0.2 0.7 0.1 1.8 0.5 2 2.3 1.2 1.8-0.7 2.2-1.3 3.4-4 1 1.3 1.1 2.6 0.2 4.6 2 1.4 3.2 3.1 2.7 5.5-0.4 2.2-4.1 4.4-6.6 3.8-1.3-0.3-2.3-0.9-2.5-2.3-0.1-1.3 0.5-2.3 1.9-2.7 1.8-0.5 2.5 0.6 2.9 1.8 1.6-0.3 2.2-1.2 1.9-2.5-0.6-2.1-2.6-3.1-5.5-2.6 0.3 0.6 0.7 1.2 1 1.9-3.6 0.4-5.1 1.6-5.6 4.7-0.2 1.9-0.2 3.8-0.4 6.1 4.5-2.6 9.9-2.6 13.4-6.2 0.4 1.4 0.4 1.4-1.8 4.6q0.9 0.6 1.9 1.3c2.3 1.7 3.8 3.9 3.9 6.6 0.2 2.7 0.7 5.3 2.6 7.9-2.6-0.2-4.4-1.3-5.9-2.9q-1 2.3-2.1 4.4-0.2 0.1-0.5 0.2c-0.6-1.9-1.3-3.7-2.1-5.7-2.5-0.5-3.7-1.7-3.4-3.5 0.2-1.2 1.4-2.2 2.8-2.2 1.4 0 1.9 0.7 2.2 2.7 1.9 0.1 2.9-0.6 3.3-2.2 0.4-1.9-1.5-4.4-3.9-5.2q-0.6 1.5-1.3 3c-0.9-1-1.5-1.9-2.5-2.4-0.6-0.4-1.7-0.3-2.5 0-2.3 0.8-3.8 2.4-4 4.6-0.1 2.1 0.1 4.3 0.4 6.4 0.3 1.9 1.7 3.1 3.2 3.1 0.4 0 0.7-0.2 1.2-0.3-0.2-0.2-0.3-0.4-0.4-0.5-1.1-0.7-1.6-1.5-0.7-2.5 0.8-0.9 2.6-1 3.6-0.3 2 1.3 1.8 3.9-0.4 5-2.3 1.1-4.6 0.8-6.2-0.9-0.5-0.5-0.8-1-1.3-1.6z"/><path fill-rule="evenodd" class="a" d="m465.4 92.4l32.7-92.1 33.8 92.1"/><path fill-rule="evenodd" class="a" d="m556.1 85.1c-0.6 0.7-1.2 1.4-1.8 2-1.3 1.2-2.9 1.4-4.6 0.9-1.5-0.4-2.7-1.1-2.9-2.7-0.3-1.4 0.9-3.1 2.5-3.1 0.9 0 2.2 0.5 2.5 1.1 0.3 0.6-0.3 1.7-0.6 2.8 0.6 0.4 1.6 0.3 2.4-0.5 0.6-0.7 1.2-1.5 1.3-2.3 0.3-2.2 0.5-4.5 0.3-6.7-0.1-2.1-1.6-3.6-3.7-4.4-2.3-0.9-3.7-0.2-5 2.6-0.6-1.2-1.1-2.2-1.6-3.2-2.1 0.4-4.1 3-3.8 5 0.3 1.7 1.4 2.5 2.8 2.4 0.8-1.1 1.1-2.2 1.9-2.5 0.7-0.3 2.2 0 2.8 0.5 1.7 1.4 0.9 3.9-1.3 4.6-0.5 0.2-1.1 0.3-1.3 0.3-0.7 2.1-1.3 3.8-2 5.6q-0.2 0-0.5-0.1c-0.7-1.4-1.4-2.8-2-4-1.8 1-3.7 2-5.6 3 0.7-2.5 1.4-4.5 1.9-6.6 0.3-1.2 0.2-2.4 0.6-3.6 0.8-2.6 2.7-4.6 5.2-5.9-0.9-1.6-1.6-3-2.4-4.4q0.3-0.2 0.6-0.4c3.4 3.6 8.9 3.6 13.2 6.1 0.2-2.7 0.4-5.2-0.6-7.6-0.9-2.2-2.3-3-5.2-3 0.4-0.6 0.7-1.2 1-1.8-1.9-0.8-4.2-0.1-5.1 1.6-0.8 1.6-0.3 2.9 1.4 3.4 0.1 0 0.3-0.1 0.3-0.1 0.2-1 0.7-2 1.9-1.8 0.8 0.1 2 0.6 2.3 1.2 0.4 0.8 0.2 2-0.2 2.8-0.3 0.5-1.4 0.9-2.2 1.1-2 0.3-5-1.3-5.9-2.9-0.9-1.8-0.4-4.4 1.4-5.7 0.7-0.5 0.8-0.9 0.6-1.7-0.2-1.2 0-2.4 0.2-3.7 1.2 2.3 2.4 4.4 5.8 4.4 0.1-0.8 0.2-1.6 0.3-2.3 1.4 1.6 2.6 3.2 4.1 5.1 0.1-5.2-2.6-7.5-6.1-6.3 1.2-2.4-1-3.8-1.6-5.7-0.3-1.1-0.2-2.2-0.2-3.3q0.2-0.1 0.5-0.1c1 1 2 2 3.1 3.1 0.5-0.6 1.1-1.2 1.9-2.1-0.2 2.2-0.2 4 2.1 5.4 0-2.8 0.6-5.4-0.3-8-0.3-0.7-1-1.3-1.7-1.9-0.2-0.2-0.8-0.2-1.2-0.3-0.1 0.3-0.2 0.7-0.3 1-0.2 0.4-0.3 0.9-0.5 1-0.5 0.1-1.3 0-1.4-0.3-0.5-0.8-1-1.8-0.9-2.6 0.1-0.6 1-1.2 1.7-1.7 0.4-0.2 1-0.2 1.3-0.3q-0.8-2-1.6-4 0.2-0.1 0.5-0.2 2.3 1.3 4.6 2.5c0.6-2.5-0.4-4.1-3.9-5.6 0.7-0.3 1.3-0.7 2.1-1.1-2-3.9 0.8-7.1 2.6-10.9 1.6 3.8 4.6 6.8 2.5 10.9 0.8 0.4 1.4 0.7 2.2 1.1-3 1.1-4.6 2.8-4 5.7 1.6-0.9 3.1-1.7 4.9-2.7 0.3 1.7-0.2 3-1.7 4.2 0.8 0.1 1.5 0.1 1.9 0.4 0.7 0.6 1.6 1.3 1.6 2 0.1 0.8-0.4 1.7-1 2.4-0.7 0.7-1.7 0.3-1.8-0.6 0-0.4 0-0.7 0.1-1.1-1.3-0.4-2.3 0.2-2.6 1-0.6 1.6-1 3.2-1.1 4.8-0.2 1.3 0.1 2.7 0.2 4.2 2.2-1.3 2.2-3 2.4-5 0.5 0.6 1 1.1 1.5 1.7q1.5-1.5 3-3 0.3 0 0.5 0c0 1 0.1 2 0 3-0.2 0.7-0.7 1.4-1 2.1-0.4 1.2-0.8 2.4-1.2 3.7-3.7-0.4-5.2 1.1-5.3 6.3 1.3-1.6 2.5-3.1 3.8-4.8 0.1 0.2 0.2 0.4 0.2 0.7 0.1 1.8 0.5 2 2.3 1.2 1.8-0.7 2.2-1.3 3.4-4 1 1.3 1.1 2.6 0.2 4.6 2 1.4 3.2 3.1 2.7 5.5-0.4 2.2-4.1 4.4-6.6 3.8-1.3-0.3-2.3-0.9-2.5-2.3-0.1-1.3 0.5-2.3 1.9-2.7 1.8-0.5 2.5 0.6 2.9 1.8 1.6-0.3 2.2-1.2 1.9-2.5-0.6-2.1-2.6-3.1-5.5-2.6 0.3 0.6 0.7 1.2 1 1.9-3.6 0.4-5.1 1.6-5.6 4.7-0.2 1.9-0.2 3.8-0.4 6.1 4.5-2.6 9.9-2.6 13.4-6.2 0.4 1.4 0.4 1.4-1.8 4.6q0.9 0.6 1.9 1.3c2.3 1.7 3.8 3.9 3.9 6.6 0.2 2.7 0.7 5.3 2.6 7.9-2.6-0.2-4.4-1.3-5.9-2.9q-1 2.3-2.1 4.4-0.2 0.1-0.5 0.2c-0.6-1.9-1.3-3.7-2.1-5.7-2.5-0.5-3.7-1.7-3.4-3.5 0.2-1.2 1.4-2.2 2.8-2.2 1.4 0 1.9 0.7 2.2 2.7 1.9 0.1 2.9-0.6 3.3-2.2 0.4-1.9-1.5-4.4-3.9-5.2q-0.6 1.5-1.3 3c-0.9-1-1.5-1.9-2.5-2.4-0.6-0.4-1.7-0.3-2.5 0-2.3 0.8-3.8 2.4-4 4.6-0.1 2.1 0.1 4.3 0.4 6.4 0.3 1.9 1.7 3.1 3.2 3.1 0.4 0 0.7-0.2 1.2-0.3-0.2-0.2-0.3-0.4-0.4-0.5-1.1-0.7-1.6-1.5-0.7-2.5 0.8-0.9 2.6-1 3.6-0.3 2 1.3 1.8 3.9-0.4 5-2.3 1.1-4.6 0.8-6.2-0.9-0.5-0.5-0.8-1-1.3-1.6z"/><path fill-rule="evenodd" class="a" d="m523.4 92.4l32.7-92.1 33.8 92.1"/><path fill-rule="evenodd" class="a" d="m614.1 85.1c-0.6 0.7-1.2 1.4-1.8 2-1.3 1.2-2.9 1.4-4.6 0.9-1.5-0.4-2.7-1.1-2.9-2.7-0.3-1.4 0.9-3.1 2.5-3.1 0.9 0 2.2 0.5 2.5 1.1 0.3 0.6-0.3 1.7-0.6 2.8 0.6 0.4 1.6 0.3 2.4-0.5 0.6-0.7 1.2-1.5 1.3-2.3 0.3-2.2 0.5-4.5 0.3-6.7-0.1-2.1-1.6-3.6-3.7-4.4-2.3-0.9-3.7-0.2-5 2.6-0.6-1.2-1.1-2.2-1.6-3.2-2.1 0.4-4.1 3-3.8 5 0.3 1.7 1.4 2.5 2.8 2.4 0.8-1.1 1.1-2.2 1.9-2.5 0.7-0.3 2.2 0 2.8 0.5 1.7 1.4 0.9 3.9-1.3 4.6-0.5 0.2-1.1 0.3-1.3 0.3-0.7 2.1-1.3 3.8-2 5.6q-0.2 0-0.5-0.1c-0.7-1.4-1.4-2.8-2-4-1.8 1-3.7 2-5.6 3 0.7-2.5 1.4-4.5 1.9-6.6 0.3-1.2 0.2-2.4 0.6-3.6 0.8-2.6 2.7-4.6 5.2-5.9-0.9-1.6-1.6-3-2.4-4.4q0.3-0.2 0.6-0.4c3.4 3.6 8.9 3.6 13.2 6.1 0.2-2.7 0.4-5.2-0.6-7.6-0.9-2.2-2.3-3-5.2-3 0.4-0.6 0.7-1.2 1-1.8-1.9-0.8-4.2-0.1-5.1 1.6-0.8 1.6-0.3 2.9 1.4 3.4 0.1 0 0.3-0.1 0.3-0.1 0.2-1 0.7-2 1.9-1.8 0.8 0.1 2 0.6 2.3 1.2 0.4 0.8 0.2 2-0.2 2.8-0.3 0.5-1.4 0.9-2.2 1.1-2 0.3-5-1.3-5.9-2.9-0.9-1.8-0.4-4.4 1.4-5.7 0.7-0.5 0.8-0.9 0.6-1.7-0.2-1.2 0-2.4 0.2-3.7 1.2 2.3 2.4 4.4 5.8 4.4 0.1-0.8 0.2-1.6 0.3-2.3 1.4 1.6 2.6 3.2 4.1 5.1 0.1-5.2-2.6-7.5-6.1-6.3 1.2-2.4-1-3.8-1.6-5.7-0.3-1.1-0.2-2.2-0.2-3.3q0.2-0.1 0.5-0.1c1 1 2 2 3.1 3.1 0.5-0.6 1.1-1.2 1.9-2.1-0.2 2.2-0.2 4 2.1 5.4 0-2.8 0.6-5.4-0.3-8-0.3-0.7-1-1.3-1.7-1.9-0.2-0.2-0.8-0.2-1.2-0.3-0.1 0.3-0.2 0.7-0.3 1-0.2 0.4-0.3 0.9-0.5 1-0.5 0.1-1.3 0-1.4-0.3-0.5-0.8-1-1.8-0.9-2.6 0.1-0.6 1-1.2 1.7-1.7 0.4-0.2 1-0.2 1.3-0.3q-0.8-2-1.6-4 0.2-0.1 0.5-0.2 2.3 1.3 4.6 2.5c0.6-2.5-0.4-4.1-3.9-5.6 0.7-0.3 1.3-0.7 2.1-1.1-2-3.9 0.8-7.1 2.6-10.9 1.6 3.8 4.6 6.8 2.5 10.9 0.8 0.4 1.4 0.7 2.2 1.1-3 1.1-4.6 2.8-4 5.7 1.6-0.9 3.1-1.7 4.9-2.7 0.3 1.7-0.2 3-1.7 4.2 0.8 0.1 1.5 0.1 1.9 0.4 0.7 0.6 1.6 1.3 1.6 2 0.1 0.8-0.4 1.7-1 2.4-0.7 0.7-1.7 0.3-1.8-0.6 0-0.4 0-0.7 0.1-1.1-1.3-0.4-2.3 0.2-2.6 1-0.6 1.6-1 3.2-1.1 4.8-0.2 1.3 0.1 2.7 0.2 4.2 2.2-1.3 2.2-3 2.4-5 0.5 0.6 1 1.1 1.5 1.7q1.5-1.5 3-3 0.3 0 0.5 0c0 1 0.1 2 0 3-0.2 0.7-0.7 1.4-1 2.1-0.4 1.2-0.8 2.4-1.2 3.7-3.7-0.4-5.2 1.1-5.3 6.3 1.3-1.6 2.5-3.1 3.8-4.8 0.1 0.2 0.2 0.4 0.2 0.7 0.1 1.8 0.5 2 2.3 1.2 1.8-0.7 2.2-1.3 3.4-4 1 1.3 1.1 2.6 0.2 4.6 2 1.4 3.2 3.1 2.7 5.5-0.4 2.2-4.1 4.4-6.6 3.8-1.3-0.3-2.3-0.9-2.5-2.3-0.1-1.3 0.5-2.3 1.9-2.7 1.8-0.5 2.5 0.6 2.9 1.8 1.6-0.3 2.2-1.2 1.9-2.5-0.6-2.1-2.6-3.1-5.5-2.6 0.3 0.6 0.7 1.2 1 1.9-3.6 0.4-5.1 1.6-5.6 4.7-0.2 1.9-0.2 3.8-0.4 6.1 4.5-2.6 9.9-2.6 13.4-6.2 0.4 1.4 0.4 1.4-1.8 4.6q0.9 0.6 1.9 1.3c2.3 1.7 3.8 3.9 3.9 6.6 0.2 2.7 0.7 5.3 2.6 7.9-2.6-0.2-4.4-1.3-5.9-2.9q-1 2.3-2.1 4.4-0.2 0.1-0.5 0.2c-0.6-1.9-1.3-3.7-2.1-5.7-2.5-0.5-3.7-1.7-3.4-3.5 0.2-1.2 1.4-2.2 2.8-2.2 1.4 0 1.9 0.7 2.2 2.7 1.9 0.1 2.9-0.6 3.3-2.2 0.4-1.9-1.5-4.4-3.9-5.2q-0.6 1.5-1.3 3c-0.9-1-1.5-1.9-2.5-2.4-0.6-0.4-1.7-0.3-2.5 0-2.3 0.8-3.8 2.4-4 4.6-0.1 2.1 0.1 4.3 0.4 6.4 0.3 1.9 1.7 3.1 3.2 3.1 0.4 0 0.7-0.2 1.2-0.3-0.2-0.2-0.3-0.4-0.4-0.5-1.1-0.7-1.6-1.5-0.7-2.5 0.8-0.9 2.6-1 3.6-0.3 2 1.3 1.8 3.9-0.4 5-2.3 1.1-4.6 0.8-6.2-0.9-0.5-0.5-0.8-1-1.3-1.6z"/><path fill-rule="evenodd" class="a" d="m581.4 92.4l32.7-92.1 33.8 92.1"/><path fill-rule="evenodd" class="a" d="m672.1 85.1c-0.6 0.7-1.2 1.4-1.8 2-1.3 1.2-2.9 1.4-4.6 0.9-1.5-0.4-2.7-1.1-2.9-2.7-0.3-1.4 0.9-3.1 2.5-3.1 0.9 0 2.2 0.5 2.5 1.1 0.3 0.6-0.3 1.7-0.6 2.8 0.6 0.4 1.6 0.3 2.4-0.5 0.6-0.7 1.2-1.5 1.3-2.3 0.3-2.2 0.5-4.5 0.3-6.7-0.1-2.1-1.6-3.6-3.7-4.4-2.3-0.9-3.7-0.2-5 2.6-0.6-1.2-1.1-2.2-1.6-3.2-2.1 0.4-4.1 3-3.8 5 0.3 1.7 1.4 2.5 2.8 2.4 0.8-1.1 1.1-2.2 1.9-2.5 0.7-0.3 2.2 0 2.8 0.5 1.7 1.4 0.9 3.9-1.3 4.6-0.5 0.2-1.1 0.3-1.3 0.3-0.7 2.1-1.3 3.8-2 5.6q-0.2 0-0.5-0.1c-0.7-1.4-1.4-2.8-2-4-1.8 1-3.7 2-5.6 3 0.7-2.5 1.4-4.5 1.9-6.6 0.3-1.2 0.2-2.4 0.6-3.6 0.8-2.6 2.7-4.6 5.2-5.9-0.9-1.6-1.6-3-2.4-4.4q0.3-0.2 0.6-0.4c3.4 3.6 8.9 3.6 13.2 6.1 0.2-2.7 0.4-5.2-0.6-7.6-0.9-2.2-2.3-3-5.2-3 0.4-0.6 0.7-1.2 1-1.8-1.9-0.8-4.2-0.1-5.1 1.6-0.8 1.6-0.3 2.9 1.4 3.4 0.1 0 0.3-0.1 0.3-0.1 0.2-1 0.7-2 1.9-1.8 0.8 0.1 2 0.6 2.3 1.2 0.4 0.8 0.2 2-0.2 2.8-0.3 0.5-1.4 0.9-2.2 1.1-2 0.3-5-1.3-5.9-2.9-0.9-1.8-0.4-4.4 1.4-5.7 0.7-0.5 0.8-0.9 0.6-1.7-0.2-1.2 0-2.4 0.2-3.7 1.2 2.3 2.4 4.4 5.8 4.4 0.1-0.8 0.2-1.6 0.3-2.3 1.4 1.6 2.6 3.2 4.1 5.1 0.1-5.2-2.6-7.5-6.1-6.3 1.2-2.4-1-3.8-1.6-5.7-0.3-1.1-0.2-2.2-0.2-3.3q0.2-0.1 0.5-0.1c1 1 2 2 3.1 3.1 0.5-0.6 1.1-1.2 1.9-2.1-0.2 2.2-0.2 4 2.1 5.4 0-2.8 0.6-5.4-0.3-8-0.3-0.7-1-1.3-1.7-1.9-0.2-0.2-0.8-0.2-1.2-0.3-0.1 0.3-0.2 0.7-0.3 1-0.2 0.4-0.3 0.9-0.5 1-0.5 0.1-1.3 0-1.4-0.3-0.5-0.8-1-1.8-0.9-2.6 0.1-0.6 1-1.2 1.7-1.7 0.4-0.2 1-0.2 1.3-0.3q-0.8-2-1.6-4 0.2-0.1 0.5-0.2 2.3 1.3 4.6 2.5c0.6-2.5-0.4-4.1-3.9-5.6 0.7-0.3 1.3-0.7 2.1-1.1-2-3.9 0.8-7.1 2.6-10.9 1.6 3.8 4.6 6.8 2.5 10.9 0.8 0.4 1.4 0.7 2.2 1.1-3 1.1-4.6 2.8-4 5.7 1.6-0.9 3.1-1.7 4.9-2.7 0.3 1.7-0.2 3-1.7 4.2 0.8 0.1 1.5 0.1 1.9 0.4 0.7 0.6 1.6 1.3 1.6 2 0.1 0.8-0.4 1.7-1 2.4-0.7 0.7-1.7 0.3-1.8-0.6 0-0.4 0-0.7 0.1-1.1-1.3-0.4-2.3 0.2-2.6 1-0.6 1.6-1 3.2-1.1 4.8-0.2 1.3 0.1 2.7 0.2 4.2 2.2-1.3 2.2-3 2.4-5 0.5 0.6 1 1.1 1.5 1.7q1.5-1.5 3-3 0.3 0 0.5 0c0 1 0.1 2 0 3-0.2 0.7-0.7 1.4-1 2.1-0.4 1.2-0.8 2.4-1.2 3.7-3.7-0.4-5.2 1.1-5.3 6.3 1.3-1.6 2.5-3.1 3.8-4.8 0.1 0.2 0.2 0.4 0.2 0.7 0.1 1.8 0.5 2 2.3 1.2 1.8-0.7 2.2-1.3 3.4-4 1 1.3 1.1 2.6 0.2 4.6 2 1.4 3.2 3.1 2.7 5.5-0.4 2.2-4.1 4.4-6.6 3.8-1.3-0.3-2.3-0.9-2.5-2.3-0.1-1.3 0.5-2.3 1.9-2.7 1.8-0.5 2.5 0.6 2.9 1.8 1.6-0.3 2.2-1.2 1.9-2.5-0.6-2.1-2.6-3.1-5.5-2.6 0.3 0.6 0.7 1.2 1 1.9-3.6 0.4-5.1 1.6-5.6 4.7-0.2 1.9-0.2 3.8-0.4 6.1 4.5-2.6 9.9-2.6 13.4-6.2 0.4 1.4 0.4 1.4-1.8 4.6q0.9 0.6 1.9 1.3c2.3 1.7 3.8 3.9 3.9 6.6 0.2 2.7 0.7 5.3 2.6 7.9-2.6-0.2-4.4-1.3-5.9-2.9q-1 2.3-2.1 4.4-0.2 0.1-0.5 0.2c-0.6-1.9-1.3-3.7-2.1-5.7-2.5-0.5-3.7-1.7-3.4-3.5 0.2-1.2 1.4-2.2 2.8-2.2 1.4 0 1.9 0.7 2.2 2.7 1.9 0.1 2.9-0.6 3.3-2.2 0.4-1.9-1.5-4.4-3.9-5.2q-0.6 1.5-1.3 3c-0.9-1-1.5-1.9-2.5-2.4-0.6-0.4-1.7-0.3-2.5 0-2.3 0.8-3.8 2.4-4 4.6-0.1 2.1 0.1 4.3 0.4 6.4 0.3 1.9 1.7 3.1 3.2 3.1 0.4 0 0.7-0.2 1.2-0.3-0.2-0.2-0.3-0.4-0.4-0.5-1.1-0.7-1.6-1.5-0.7-2.5 0.8-0.9 2.6-1 3.6-0.3 2 1.3 1.8 3.9-0.4 5-2.3 1.1-4.6 0.8-6.2-0.9-0.5-0.5-0.8-1-1.3-1.6z"/><path fill-rule="evenodd" class="a" d="m639.4 92.4l32.7-92.1 33.8 92.1"/><path fill-rule="evenodd" class="a" d="m730.1 85.1c-0.6 0.7-1.2 1.4-1.8 2-1.3 1.2-2.9 1.4-4.6 0.9-1.5-0.4-2.7-1.1-2.9-2.7-0.3-1.4 0.9-3.1 2.5-3.1 0.9 0 2.2 0.5 2.5 1.1 0.3 0.6-0.3 1.7-0.6 2.8 0.6 0.4 1.6 0.3 2.4-0.5 0.6-0.7 1.2-1.5 1.3-2.3 0.3-2.2 0.5-4.5 0.3-6.7-0.1-2.1-1.6-3.6-3.7-4.4-2.3-0.9-3.7-0.2-5 2.6-0.6-1.2-1.1-2.2-1.6-3.2-2.1 0.4-4.1 3-3.8 5 0.3 1.7 1.4 2.5 2.8 2.4 0.8-1.1 1.1-2.2 1.9-2.5 0.7-0.3 2.2 0 2.8 0.5 1.7 1.4 0.9 3.9-1.3 4.6-0.5 0.2-1.1 0.3-1.3 0.3-0.7 2.1-1.3 3.8-2 5.6q-0.2 0-0.5-0.1c-0.7-1.4-1.4-2.8-2-4-1.8 1-3.7 2-5.6 3 0.7-2.5 1.4-4.5 1.9-6.6 0.3-1.2 0.2-2.4 0.6-3.6 0.8-2.6 2.7-4.6 5.2-5.9-0.9-1.6-1.6-3-2.4-4.4q0.3-0.2 0.6-0.4c3.4 3.6 8.9 3.6 13.2 6.1 0.2-2.7 0.4-5.2-0.6-7.6-0.9-2.2-2.3-3-5.2-3 0.4-0.6 0.7-1.2 1-1.8-1.9-0.8-4.2-0.1-5.1 1.6-0.8 1.6-0.3 2.9 1.4 3.4 0.1 0 0.3-0.1 0.3-0.1 0.2-1 0.7-2 1.9-1.8 0.8 0.1 2 0.6 2.3 1.2 0.4 0.8 0.2 2-0.2 2.8-0.3 0.5-1.4 0.9-2.2 1.1-2 0.3-5-1.3-5.9-2.9-0.9-1.8-0.4-4.4 1.4-5.7 0.7-0.5 0.8-0.9 0.6-1.7-0.2-1.2 0-2.4 0.2-3.7 1.2 2.3 2.4 4.4 5.8 4.4 0.1-0.8 0.2-1.6 0.3-2.3 1.4 1.6 2.6 3.2 4.1 5.1 0.1-5.2-2.6-7.5-6.1-6.3 1.2-2.4-1-3.8-1.6-5.7-0.3-1.1-0.2-2.2-0.2-3.3q0.2-0.1 0.5-0.1c1 1 2 2 3.1 3.1 0.5-0.6 1.1-1.2 1.9-2.1-0.2 2.2-0.2 4 2.1 5.4 0-2.8 0.6-5.4-0.3-8-0.3-0.7-1-1.3-1.7-1.9-0.2-0.2-0.8-0.2-1.2-0.3-0.1 0.3-0.2 0.7-0.3 1-0.2 0.4-0.3 0.9-0.5 1-0.5 0.1-1.3 0-1.4-0.3-0.5-0.8-1-1.8-0.9-2.6 0.1-0.6 1-1.2 1.7-1.7 0.4-0.2 1-0.2 1.3-0.3q-0.8-2-1.6-4 0.2-0.1 0.5-0.2 2.3 1.3 4.6 2.5c0.6-2.5-0.4-4.1-3.9-5.6 0.7-0.3 1.3-0.7 2.1-1.1-2-3.9 0.8-7.1 2.6-10.9 1.6 3.8 4.6 6.8 2.5 10.9 0.8 0.4 1.4 0.7 2.2 1.1-3 1.1-4.6 2.8-4 5.7 1.6-0.9 3.1-1.7 4.9-2.7 0.3 1.7-0.2 3-1.7 4.2 0.8 0.1 1.5 0.1 1.9 0.4 0.7 0.6 1.6 1.3 1.6 2 0.1 0.8-0.4 1.7-1 2.4-0.7 0.7-1.7 0.3-1.8-0.6 0-0.4 0-0.7 0.1-1.1-1.3-0.4-2.3 0.2-2.6 1-0.6 1.6-1 3.2-1.1 4.8-0.2 1.3 0.1 2.7 0.2 4.2 2.2-1.3 2.2-3 2.4-5 0.5 0.6 1 1.1 1.5 1.7q1.5-1.5 3-3 0.3 0 0.5 0c0 1 0.1 2 0 3-0.2 0.7-0.7 1.4-1 2.1-0.4 1.2-0.8 2.4-1.2 3.7-3.7-0.4-5.2 1.1-5.3 6.3 1.3-1.6 2.5-3.1 3.8-4.8 0.1 0.2 0.2 0.4 0.2 0.7 0.1 1.8 0.5 2 2.3 1.2 1.8-0.7 2.2-1.3 3.4-4 1 1.3 1.1 2.6 0.2 4.6 2 1.4 3.2 3.1 2.7 5.5-0.4 2.2-4.1 4.4-6.6 3.8-1.3-0.3-2.3-0.9-2.5-2.3-0.1-1.3 0.5-2.3 1.9-2.7 1.8-0.5 2.5 0.6 2.9 1.8 1.6-0.3 2.2-1.2 1.9-2.5-0.6-2.1-2.6-3.1-5.5-2.6 0.3 0.6 0.7 1.2 1 1.9-3.6 0.4-5.1 1.6-5.6 4.7-0.2 1.9-0.2 3.8-0.4 6.1 4.5-2.6 9.9-2.6 13.4-6.2 0.4 1.4 0.4 1.4-1.8 4.6q0.9 0.6 1.9 1.3c2.3 1.7 3.8 3.9 3.9 6.6 0.2 2.7 0.7 5.3 2.6 7.9-2.6-0.2-4.4-1.3-5.9-2.9q-1 2.3-2.1 4.4-0.2 0.1-0.5 0.2c-0.6-1.9-1.3-3.7-2.1-5.7-2.5-0.5-3.7-1.7-3.4-3.5 0.2-1.2 1.4-2.2 2.8-2.2 1.4 0 1.9 0.7 2.2 2.7 1.9 0.1 2.9-0.6 3.3-2.2 0.4-1.9-1.5-4.4-3.9-5.2q-0.6 1.5-1.3 3c-0.9-1-1.5-1.9-2.5-2.4-0.6-0.4-1.7-0.3-2.5 0-2.3 0.8-3.8 2.4-4 4.6-0.1 2.1 0.1 4.3 0.4 6.4 0.3 1.9 1.7 3.1 3.2 3.1 0.4 0 0.7-0.2 1.2-0.3-0.2-0.2-0.3-0.4-0.4-0.5-1.1-0.7-1.6-1.5-0.7-2.5 0.8-0.9 2.6-1 3.6-0.3 2 1.3 1.8 3.9-0.4 5-2.3 1.1-4.6 0.8-6.2-0.9-0.5-0.5-0.8-1-1.3-1.6z"/><path fill-rule="evenodd" class="a" d="m697.4 92.4l32.7-92.1 33.8 92.1"/><path fill-rule="evenodd" class="a" d="m788.1 85.1c-0.6 0.7-1.2 1.4-1.8 2-1.3 1.2-2.9 1.4-4.6 0.9-1.5-0.4-2.7-1.1-2.9-2.7-0.3-1.4 0.9-3.1 2.5-3.1 0.9 0 2.2 0.5 2.5 1.1 0.3 0.6-0.3 1.7-0.6 2.8 0.6 0.4 1.6 0.3 2.4-0.5 0.6-0.7 1.2-1.5 1.3-2.3 0.3-2.2 0.5-4.5 0.3-6.7-0.1-2.1-1.6-3.6-3.7-4.4-2.3-0.9-3.7-0.2-5 2.6-0.6-1.2-1.1-2.2-1.6-3.2-2.1 0.4-4.1 3-3.8 5 0.3 1.7 1.4 2.5 2.8 2.4 0.8-1.1 1.1-2.2 1.9-2.5 0.7-0.3 2.2 0 2.8 0.5 1.7 1.4 0.9 3.9-1.3 4.6-0.5 0.2-1.1 0.3-1.3 0.3-0.7 2.1-1.3 3.8-2 5.6q-0.2 0-0.5-0.1c-0.7-1.4-1.4-2.8-2-4-1.8 1-3.7 2-5.6 3 0.7-2.5 1.4-4.5 1.9-6.6 0.3-1.2 0.2-2.4 0.6-3.6 0.8-2.6 2.7-4.6 5.2-5.9-0.9-1.6-1.6-3-2.4-4.4q0.3-0.2 0.6-0.4c3.4 3.6 8.9 3.6 13.2 6.1 0.2-2.7 0.4-5.2-0.6-7.6-0.9-2.2-2.3-3-5.2-3 0.4-0.6 0.7-1.2 1-1.8-1.9-0.8-4.2-0.1-5.1 1.6-0.8 1.6-0.3 2.9 1.4 3.4 0.1 0 0.3-0.1 0.3-0.1 0.2-1 0.7-2 1.9-1.8 0.8 0.1 2 0.6 2.3 1.2 0.4 0.8 0.2 2-0.2 2.8-0.3 0.5-1.4 0.9-2.2 1.1-2 0.3-5-1.3-5.9-2.9-0.9-1.8-0.4-4.4 1.4-5.7 0.7-0.5 0.8-0.9 0.6-1.7-0.2-1.2 0-2.4 0.2-3.7 1.2 2.3 2.4 4.4 5.8 4.4 0.1-0.8 0.2-1.6 0.3-2.3 1.4 1.6 2.6 3.2 4.1 5.1 0.1-5.2-2.6-7.5-6.1-6.3 1.2-2.4-1-3.8-1.6-5.7-0.3-1.1-0.2-2.2-0.2-3.3q0.2-0.1 0.5-0.1c1 1 2 2 3.1 3.1 0.5-0.6 1.1-1.2 1.9-2.1-0.2 2.2-0.2 4 2.1 5.4 0-2.8 0.6-5.4-0.3-8-0.3-0.7-1-1.3-1.7-1.9-0.2-0.2-0.8-0.2-1.2-0.3-0.1 0.3-0.2 0.7-0.3 1-0.2 0.4-0.3 0.9-0.5 1-0.5 0.1-1.3 0-1.4-0.3-0.5-0.8-1-1.8-0.9-2.6 0.1-0.6 1-1.2 1.7-1.7 0.4-0.2 1-0.2 1.3-0.3q-0.8-2-1.6-4 0.2-0.1 0.5-0.2 2.3 1.3 4.6 2.5c0.6-2.5-0.4-4.1-3.9-5.6 0.7-0.3 1.3-0.7 2.1-1.1-2-3.9 0.8-7.1 2.6-10.9 1.6 3.8 4.6 6.8 2.5 10.9 0.8 0.4 1.4 0.7 2.2 1.1-3 1.1-4.6 2.8-4 5.7 1.6-0.9 3.1-1.7 4.9-2.7 0.3 1.7-0.2 3-1.7 4.2 0.8 0.1 1.5 0.1 1.9 0.4 0.7 0.6 1.6 1.3 1.6 2 0.1 0.8-0.4 1.7-1 2.4-0.7 0.7-1.7 0.3-1.8-0.6 0-0.4 0-0.7 0.1-1.1-1.3-0.4-2.3 0.2-2.6 1-0.6 1.6-1 3.2-1.1 4.8-0.2 1.3 0.1 2.7 0.2 4.2 2.2-1.3 2.2-3 2.4-5 0.5 0.6 1 1.1 1.5 1.7q1.5-1.5 3-3 0.3 0 0.5 0c0 1 0.1 2 0 3-0.2 0.7-0.7 1.4-1 2.1-0.4 1.2-0.8 2.4-1.2 3.7-3.7-0.4-5.2 1.1-5.3 6.3 1.3-1.6 2.5-3.1 3.8-4.8 0.1 0.2 0.2 0.4 0.2 0.7 0.1 1.8 0.5 2 2.3 1.2 1.8-0.7 2.2-1.3 3.4-4 1 1.3 1.1 2.6 0.2 4.6 2 1.4 3.2 3.1 2.7 5.5-0.4 2.2-4.1 4.4-6.6 3.8-1.3-0.3-2.3-0.9-2.5-2.3-0.1-1.3 0.5-2.3 1.9-2.7 1.8-0.5 2.5 0.6 2.9 1.8 1.6-0.3 2.2-1.2 1.9-2.5-0.6-2.1-2.6-3.1-5.5-2.6 0.3 0.6 0.7 1.2 1 1.9-3.6 0.4-5.1 1.6-5.6 4.7-0.2 1.9-0.2 3.8-0.4 6.1 4.5-2.6 9.9-2.6 13.4-6.2 0.4 1.4 0.4 1.4-1.8 4.6q0.9 0.6 1.9 1.3c2.3 1.7 3.8 3.9 3.9 6.6 0.2 2.7 0.7 5.3 2.6 7.9-2.6-0.2-4.4-1.3-5.9-2.9q-1 2.3-2.1 4.4-0.2 0.1-0.5 0.2c-0.6-1.9-1.3-3.7-2.1-5.7-2.5-0.5-3.7-1.7-3.4-3.5 0.2-1.2 1.4-2.2 2.8-2.2 1.4 0 1.9 0.7 2.2 2.7 1.9 0.1 2.9-0.6 3.3-2.2 0.4-1.9-1.5-4.4-3.9-5.2q-0.6 1.5-1.3 3c-0.9-1-1.5-1.9-2.5-2.4-0.6-0.4-1.7-0.3-2.5 0-2.3 0.8-3.8 2.4-4 4.6-0.1 2.1 0.1 4.3 0.4 6.4 0.3 1.9 1.7 3.1 3.2 3.1 0.4 0 0.7-0.2 1.2-0.3-0.2-0.2-0.3-0.4-0.4-0.5-1.1-0.7-1.6-1.5-0.7-2.5 0.8-0.9 2.6-1 3.6-0.3 2 1.3 1.8 3.9-0.4 5-2.3 1.1-4.6 0.8-6.2-0.9-0.5-0.5-0.8-1-1.3-1.6z"/><path fill-rule="evenodd" class="a" d="m755.4 92.4l32.7-92.1 33.8 92.1"/><path fill-rule="evenodd" class="a" d="m846.1 85.1c-0.6 0.7-1.2 1.4-1.8 2-1.3 1.2-2.9 1.4-4.6 0.9-1.5-0.4-2.7-1.1-2.9-2.7-0.3-1.4 0.9-3.1 2.5-3.1 0.9 0 2.2 0.5 2.5 1.1 0.3 0.6-0.3 1.7-0.6 2.8 0.6 0.4 1.6 0.3 2.4-0.5 0.6-0.7 1.2-1.5 1.3-2.3 0.3-2.2 0.5-4.5 0.3-6.7-0.1-2.1-1.6-3.6-3.7-4.4-2.3-0.9-3.7-0.2-5 2.6-0.6-1.2-1.1-2.2-1.6-3.2-2.1 0.4-4.1 3-3.8 5 0.3 1.7 1.4 2.5 2.8 2.4 0.8-1.1 1.1-2.2 1.9-2.5 0.7-0.3 2.2 0 2.8 0.5 1.7 1.4 0.9 3.9-1.3 4.6-0.5 0.2-1.1 0.3-1.3 0.3-0.7 2.1-1.3 3.8-2 5.6q-0.2 0-0.5-0.1c-0.7-1.4-1.4-2.8-2-4-1.8 1-3.7 2-5.6 3 0.7-2.5 1.4-4.5 1.9-6.6 0.3-1.2 0.2-2.4 0.6-3.6 0.8-2.6 2.7-4.6 5.2-5.9-0.9-1.6-1.6-3-2.4-4.4q0.3-0.2 0.6-0.4c3.4 3.6 8.9 3.6 13.2 6.1 0.2-2.7 0.4-5.2-0.6-7.6-0.9-2.2-2.3-3-5.2-3 0.4-0.6 0.7-1.2 1-1.8-1.9-0.8-4.2-0.1-5.1 1.6-0.8 1.6-0.3 2.9 1.4 3.4 0.1 0 0.3-0.1 0.3-0.1 0.2-1 0.7-2 1.9-1.8 0.8 0.1 2 0.6 2.3 1.2 0.4 0.8 0.2 2-0.2 2.8-0.3 0.5-1.4 0.9-2.2 1.1-2 0.3-5-1.3-5.9-2.9-0.9-1.8-0.4-4.4 1.4-5.7 0.7-0.5 0.8-0.9 0.6-1.7-0.2-1.2 0-2.4 0.2-3.7 1.2 2.3 2.4 4.4 5.8 4.4 0.1-0.8 0.2-1.6 0.3-2.3 1.4 1.6 2.6 3.2 4.1 5.1 0.1-5.2-2.6-7.5-6.1-6.3 1.2-2.4-1-3.8-1.6-5.7-0.3-1.1-0.2-2.2-0.2-3.3q0.2-0.1 0.5-0.1c1 1 2 2 3.1 3.1 0.5-0.6 1.1-1.2 1.9-2.1-0.2 2.2-0.2 4 2.1 5.4 0-2.8 0.6-5.4-0.3-8-0.3-0.7-1-1.3-1.7-1.9-0.2-0.2-0.8-0.2-1.2-0.3-0.1 0.3-0.2 0.7-0.3 1-0.2 0.4-0.3 0.9-0.5 1-0.5 0.1-1.3 0-1.4-0.3-0.5-0.8-1-1.8-0.9-2.6 0.1-0.6 1-1.2 1.7-1.7 0.4-0.2 1-0.2 1.3-0.3q-0.8-2-1.6-4 0.2-0.1 0.5-0.2 2.3 1.3 4.6 2.5c0.6-2.5-0.4-4.1-3.9-5.6 0.7-0.3 1.3-0.7 2.1-1.1-2-3.9 0.8-7.1 2.6-10.9 1.6 3.8 4.6 6.8 2.5 10.9 0.8 0.4 1.4 0.7 2.2 1.1-3 1.1-4.6 2.8-4 5.7 1.6-0.9 3.1-1.7 4.9-2.7 0.3 1.7-0.2 3-1.7 4.2 0.8 0.1 1.5 0.1 1.9 0.4 0.7 0.6 1.6 1.3 1.6 2 0.1 0.8-0.4 1.7-1 2.4-0.7 0.7-1.7 0.3-1.8-0.6 0-0.4 0-0.7 0.1-1.1-1.3-0.4-2.3 0.2-2.6 1-0.6 1.6-1 3.2-1.1 4.8-0.2 1.3 0.1 2.7 0.2 4.2 2.2-1.3 2.2-3 2.4-5 0.5 0.6 1 1.1 1.5 1.7q1.5-1.5 3-3 0.3 0 0.5 0c0 1 0.1 2 0 3-0.2 0.7-0.7 1.4-1 2.1-0.4 1.2-0.8 2.4-1.2 3.7-3.7-0.4-5.2 1.1-5.3 6.3 1.3-1.6 2.5-3.1 3.8-4.8 0.1 0.2 0.2 0.4 0.2 0.7 0.1 1.8 0.5 2 2.3 1.2 1.8-0.7 2.2-1.3 3.4-4 1 1.3 1.1 2.6 0.2 4.6 2 1.4 3.2 3.1 2.7 5.5-0.4 2.2-4.1 4.4-6.6 3.8-1.3-0.3-2.3-0.9-2.5-2.3-0.1-1.3 0.5-2.3 1.9-2.7 1.8-0.5 2.5 0.6 2.9 1.8 1.6-0.3 2.2-1.2 1.9-2.5-0.6-2.1-2.6-3.1-5.5-2.6 0.3 0.6 0.7 1.2 1 1.9-3.6 0.4-5.1 1.6-5.6 4.7-0.2 1.9-0.2 3.8-0.4 6.1 4.5-2.6 9.9-2.6 13.4-6.2 0.4 1.4 0.4 1.4-1.8 4.6q0.9 0.6 1.9 1.3c2.3 1.7 3.8 3.9 3.9 6.6 0.2 2.7 0.7 5.3 2.6 7.9-2.6-0.2-4.4-1.3-5.9-2.9q-1 2.3-2.1 4.4-0.2 0.1-0.5 0.2c-0.6-1.9-1.3-3.7-2.1-5.7-2.5-0.5-3.7-1.7-3.4-3.5 0.2-1.2 1.4-2.2 2.8-2.2 1.4 0 1.9 0.7 2.2 2.7 1.9 0.1 2.9-0.6 3.3-2.2 0.4-1.9-1.5-4.4-3.9-5.2q-0.6 1.5-1.3 3c-0.9-1-1.5-1.9-2.5-2.4-0.6-0.4-1.7-0.3-2.5 0-2.3 0.8-3.8 2.4-4 4.6-0.1 2.1 0.1 4.3 0.4 6.4 0.3 1.9 1.7 3.1 3.2 3.1 0.4 0 0.7-0.2 1.2-0.3-0.2-0.2-0.3-0.4-0.4-0.5-1.1-0.7-1.6-1.5-0.7-2.5 0.8-0.9 2.6-1 3.6-0.3 2 1.3 1.8 3.9-0.4 5-2.3 1.1-4.6 0.8-6.2-0.9-0.5-0.5-0.8-1-1.3-1.6z"/><path fill-rule="evenodd" class="a" d="m813.4 92.4l32.7-92.1 33.8 92.1"/><path fill-rule="evenodd" class="a" d="m904.1 85.1c-0.6 0.7-1.2 1.4-1.8 2-1.3 1.2-2.9 1.4-4.6 0.9-1.5-0.4-2.7-1.1-2.9-2.7-0.3-1.4 0.9-3.1 2.5-3.1 0.9 0 2.2 0.5 2.5 1.1 0.3 0.6-0.3 1.7-0.6 2.8 0.6 0.4 1.6 0.3 2.4-0.5 0.6-0.7 1.2-1.5 1.3-2.3 0.3-2.2 0.5-4.5 0.3-6.7-0.1-2.1-1.6-3.6-3.7-4.4-2.3-0.9-3.7-0.2-5 2.6-0.6-1.2-1.1-2.2-1.6-3.2-2.1 0.4-4.1 3-3.8 5 0.3 1.7 1.4 2.5 2.8 2.4 0.8-1.1 1.1-2.2 1.9-2.5 0.7-0.3 2.2 0 2.8 0.5 1.7 1.4 0.9 3.9-1.3 4.6-0.5 0.2-1.1 0.3-1.3 0.3-0.7 2.1-1.3 3.8-2 5.6q-0.2 0-0.5-0.1c-0.7-1.4-1.4-2.8-2-4-1.8 1-3.7 2-5.6 3 0.7-2.5 1.4-4.5 1.9-6.6 0.3-1.2 0.2-2.4 0.6-3.6 0.8-2.6 2.7-4.6 5.2-5.9-0.9-1.6-1.6-3-2.4-4.4q0.3-0.2 0.6-0.4c3.4 3.6 8.9 3.6 13.2 6.1 0.2-2.7 0.4-5.2-0.6-7.6-0.9-2.2-2.3-3-5.2-3 0.4-0.6 0.7-1.2 1-1.8-1.9-0.8-4.2-0.1-5.1 1.6-0.8 1.6-0.3 2.9 1.4 3.4 0.1 0 0.3-0.1 0.3-0.1 0.2-1 0.7-2 1.9-1.8 0.8 0.1 2 0.6 2.3 1.2 0.4 0.8 0.2 2-0.2 2.8-0.3 0.5-1.4 0.9-2.2 1.1-2 0.3-5-1.3-5.9-2.9-0.9-1.8-0.4-4.4 1.4-5.7 0.7-0.5 0.8-0.9 0.6-1.7-0.2-1.2 0-2.4 0.2-3.7 1.2 2.3 2.4 4.4 5.8 4.4 0.1-0.8 0.2-1.6 0.3-2.3 1.4 1.6 2.6 3.2 4.1 5.1 0.1-5.2-2.6-7.5-6.1-6.3 1.2-2.4-1-3.8-1.6-5.7-0.3-1.1-0.2-2.2-0.2-3.3q0.2-0.1 0.5-0.1c1 1 2 2 3.1 3.1 0.5-0.6 1.1-1.2 1.9-2.1-0.2 2.2-0.2 4 2.1 5.4 0-2.8 0.6-5.4-0.3-8-0.3-0.7-1-1.3-1.7-1.9-0.2-0.2-0.8-0.2-1.2-0.3-0.1 0.3-0.2 0.7-0.3 1-0.2 0.4-0.3 0.9-0.5 1-0.5 0.1-1.3 0-1.4-0.3-0.5-0.8-1-1.8-0.9-2.6 0.1-0.6 1-1.2 1.7-1.7 0.4-0.2 1-0.2 1.3-0.3q-0.8-2-1.6-4 0.2-0.1 0.5-0.2 2.3 1.3 4.6 2.5c0.6-2.5-0.4-4.1-3.9-5.6 0.7-0.3 1.3-0.7 2.1-1.1-2-3.9 0.8-7.1 2.6-10.9 1.6 3.8 4.6 6.8 2.5 10.9 0.8 0.4 1.4 0.7 2.2 1.1-3 1.1-4.6 2.8-4 5.7 1.6-0.9 3.1-1.7 4.9-2.7 0.3 1.7-0.2 3-1.7 4.2 0.8 0.1 1.5 0.1 1.9 0.4 0.7 0.6 1.6 1.3 1.6 2 0.1 0.8-0.4 1.7-1 2.4-0.7 0.7-1.7 0.3-1.8-0.6 0-0.4 0-0.7 0.1-1.1-1.3-0.4-2.3 0.2-2.6 1-0.6 1.6-1 3.2-1.1 4.8-0.2 1.3 0.1 2.7 0.2 4.2 2.2-1.3 2.2-3 2.4-5 0.5 0.6 1 1.1 1.5 1.7q1.5-1.5 3-3 0.3 0 0.5 0c0 1 0.1 2 0 3-0.2 0.7-0.7 1.4-1 2.1-0.4 1.2-0.8 2.4-1.2 3.7-3.7-0.4-5.2 1.1-5.3 6.3 1.3-1.6 2.5-3.1 3.8-4.8 0.1 0.2 0.2 0.4 0.2 0.7 0.1 1.8 0.5 2 2.3 1.2 1.8-0.7 2.2-1.3 3.4-4 1 1.3 1.1 2.6 0.2 4.6 2 1.4 3.2 3.1 2.7 5.5-0.4 2.2-4.1 4.4-6.6 3.8-1.3-0.3-2.3-0.9-2.5-2.3-0.1-1.3 0.5-2.3 1.9-2.7 1.8-0.5 2.5 0.6 2.9 1.8 1.6-0.3 2.2-1.2 1.9-2.5-0.6-2.1-2.6-3.1-5.5-2.6 0.3 0.6 0.7 1.2 1 1.9-3.6 0.4-5.1 1.6-5.6 4.7-0.2 1.9-0.2 3.8-0.4 6.1 4.5-2.6 9.9-2.6 13.4-6.2 0.4 1.4 0.4 1.4-1.8 4.6q0.9 0.6 1.9 1.3c2.3 1.7 3.8 3.9 3.9 6.6 0.2 2.7 0.7 5.3 2.6 7.9-2.6-0.2-4.4-1.3-5.9-2.9q-1 2.3-2.1 4.4-0.2 0.1-0.5 0.2c-0.6-1.9-1.3-3.7-2.1-5.7-2.5-0.5-3.7-1.7-3.4-3.5 0.2-1.2 1.4-2.2 2.8-2.2 1.4 0 1.9 0.7 2.2 2.7 1.9 0.1 2.9-0.6 3.3-2.2 0.4-1.9-1.5-4.4-3.9-5.2q-0.6 1.5-1.3 3c-0.9-1-1.5-1.9-2.5-2.4-0.6-0.4-1.7-0.3-2.5 0-2.3 0.8-3.8 2.4-4 4.6-0.1 2.1 0.1 4.3 0.4 6.4 0.3 1.9 1.7 3.1 3.2 3.1 0.4 0 0.7-0.2 1.2-0.3-0.2-0.2-0.3-0.4-0.4-0.5-1.1-0.7-1.6-1.5-0.7-2.5 0.8-0.9 2.6-1 3.6-0.3 2 1.3 1.8 3.9-0.4 5-2.3 1.1-4.6 0.8-6.2-0.9-0.5-0.5-0.8-1-1.3-1.6z"/><path fill-rule="evenodd" class="a" d="m871.4 92.4l32.7-92.1 33.8 92.1"/><path fill-rule="evenodd" class="a" d="m962.1 85.1c-0.6 0.7-1.2 1.4-1.8 2-1.3 1.2-2.9 1.4-4.6 0.9-1.5-0.4-2.7-1.1-2.9-2.7-0.3-1.4 0.9-3.1 2.5-3.1 0.9 0 2.2 0.5 2.5 1.1 0.3 0.6-0.3 1.7-0.6 2.8 0.6 0.4 1.6 0.3 2.4-0.5 0.6-0.7 1.2-1.5 1.3-2.3 0.3-2.2 0.5-4.5 0.3-6.7-0.1-2.1-1.6-3.6-3.7-4.4-2.3-0.9-3.7-0.2-5 2.6-0.6-1.2-1.1-2.2-1.6-3.2-2.1 0.4-4.1 3-3.8 5 0.3 1.7 1.4 2.5 2.8 2.4 0.8-1.1 1.1-2.2 1.9-2.5 0.7-0.3 2.2 0 2.8 0.5 1.7 1.4 0.9 3.9-1.3 4.6-0.5 0.2-1.1 0.3-1.3 0.3-0.7 2.1-1.3 3.8-2 5.6q-0.2 0-0.5-0.1c-0.7-1.4-1.4-2.8-2-4-1.8 1-3.7 2-5.6 3 0.7-2.5 1.4-4.5 1.9-6.6 0.3-1.2 0.2-2.4 0.6-3.6 0.8-2.6 2.7-4.6 5.2-5.9-0.9-1.6-1.6-3-2.4-4.4q0.3-0.2 0.6-0.4c3.4 3.6 8.9 3.6 13.2 6.1 0.2-2.7 0.4-5.2-0.6-7.6-0.9-2.2-2.3-3-5.2-3 0.4-0.6 0.7-1.2 1-1.8-1.9-0.8-4.2-0.1-5.1 1.6-0.8 1.6-0.3 2.9 1.4 3.4 0.1 0 0.3-0.1 0.3-0.1 0.2-1 0.7-2 1.9-1.8 0.8 0.1 2 0.6 2.3 1.2 0.4 0.8 0.2 2-0.2 2.8-0.3 0.5-1.4 0.9-2.2 1.1-2 0.3-5-1.3-5.9-2.9-0.9-1.8-0.4-4.4 1.4-5.7 0.7-0.5 0.8-0.9 0.6-1.7-0.2-1.2 0-2.4 0.2-3.7 1.2 2.3 2.4 4.4 5.8 4.4 0.1-0.8 0.2-1.6 0.3-2.3 1.4 1.6 2.6 3.2 4.1 5.1 0.1-5.2-2.6-7.5-6.1-6.3 1.2-2.4-1-3.8-1.6-5.7-0.3-1.1-0.2-2.2-0.2-3.3q0.2-0.1 0.5-0.1c1 1 2 2 3.1 3.1 0.5-0.6 1.1-1.2 1.9-2.1-0.2 2.2-0.2 4 2.1 5.4 0-2.8 0.6-5.4-0.3-8-0.3-0.7-1-1.3-1.7-1.9-0.2-0.2-0.8-0.2-1.2-0.3-0.1 0.3-0.2 0.7-0.3 1-0.2 0.4-0.3 0.9-0.5 1-0.5 0.1-1.3 0-1.4-0.3-0.5-0.8-1-1.8-0.9-2.6 0.1-0.6 1-1.2 1.7-1.7 0.4-0.2 1-0.2 1.3-0.3q-0.8-2-1.6-4 0.2-0.1 0.5-0.2 2.3 1.3 4.6 2.5c0.6-2.5-0.4-4.1-3.9-5.6 0.7-0.3 1.3-0.7 2.1-1.1-2-3.9 0.8-7.1 2.6-10.9 1.6 3.8 4.6 6.8 2.5 10.9 0.8 0.4 1.4 0.7 2.2 1.1-3 1.1-4.6 2.8-4 5.7 1.6-0.9 3.1-1.7 4.9-2.7 0.3 1.7-0.2 3-1.7 4.2 0.8 0.1 1.5 0.1 1.9 0.4 0.7 0.6 1.6 1.3 1.6 2 0.1 0.8-0.4 1.7-1 2.4-0.7 0.7-1.7 0.3-1.8-0.6 0-0.4 0-0.7 0.1-1.1-1.3-0.4-2.3 0.2-2.6 1-0.6 1.6-1 3.2-1.1 4.8-0.2 1.3 0.1 2.7 0.2 4.2 2.2-1.3 2.2-3 2.4-5 0.5 0.6 1 1.1 1.5 1.7q1.5-1.5 3-3 0.3 0 0.5 0c0 1 0.1 2 0 3-0.2 0.7-0.7 1.4-1 2.1-0.4 1.2-0.8 2.4-1.2 3.7-3.7-0.4-5.2 1.1-5.3 6.3 1.3-1.6 2.5-3.1 3.8-4.8 0.1 0.2 0.2 0.4 0.2 0.7 0.1 1.8 0.5 2 2.3 1.2 1.8-0.7 2.2-1.3 3.4-4 1 1.3 1.1 2.6 0.2 4.6 2 1.4 3.2 3.1 2.7 5.5-0.4 2.2-4.1 4.4-6.6 3.8-1.3-0.3-2.3-0.9-2.5-2.3-0.1-1.3 0.5-2.3 1.9-2.7 1.8-0.5 2.5 0.6 2.9 1.8 1.6-0.3 2.2-1.2 1.9-2.5-0.6-2.1-2.6-3.1-5.5-2.6 0.3 0.6 0.7 1.2 1 1.9-3.6 0.4-5.1 1.6-5.6 4.7-0.2 1.9-0.2 3.8-0.4 6.1 4.5-2.6 9.9-2.6 13.4-6.2 0.4 1.4 0.4 1.4-1.8 4.6q0.9 0.6 1.9 1.3c2.3 1.7 3.8 3.9 3.9 6.6 0.2 2.7 0.7 5.3 2.6 7.9-2.6-0.2-4.4-1.3-5.9-2.9q-1 2.3-2.1 4.4-0.2 0.1-0.5 0.2c-0.6-1.9-1.3-3.7-2.1-5.7-2.5-0.5-3.7-1.7-3.4-3.5 0.2-1.2 1.4-2.2 2.8-2.2 1.4 0 1.9 0.7 2.2 2.7 1.9 0.1 2.9-0.6 3.3-2.2 0.4-1.9-1.5-4.4-3.9-5.2q-0.6 1.5-1.3 3c-0.9-1-1.5-1.9-2.5-2.4-0.6-0.4-1.7-0.3-2.5 0-2.3 0.8-3.8 2.4-4 4.6-0.1 2.1 0.1 4.3 0.4 6.4 0.3 1.9 1.7 3.1 3.2 3.1 0.4 0 0.7-0.2 1.2-0.3-0.2-0.2-0.3-0.4-0.4-0.5-1.1-0.7-1.6-1.5-0.7-2.5 0.8-0.9 2.6-1 3.6-0.3 2 1.3 1.8 3.9-0.4 5-2.3 1.1-4.6 0.8-6.2-0.9-0.5-0.5-0.8-1-1.3-1.6z"/><path fill-rule="evenodd" class="a" d="m929.4 92.4l32.7-92.1 33.8 92.1"/><path fill-rule="evenodd" class="a" d="m1020.1 85.1c-0.6 0.7-1.2 1.4-1.8 2-1.3 1.2-2.9 1.4-4.6 0.9-1.5-0.4-2.7-1.1-2.9-2.7-0.3-1.4 0.9-3.1 2.5-3.1 0.9 0 2.2 0.5 2.5 1.1 0.3 0.6-0.3 1.7-0.6 2.8 0.6 0.4 1.6 0.3 2.4-0.5 0.6-0.7 1.2-1.5 1.3-2.3 0.3-2.2 0.5-4.5 0.3-6.7-0.1-2.1-1.6-3.6-3.7-4.4-2.3-0.9-3.7-0.2-5 2.6-0.6-1.2-1.1-2.2-1.6-3.2-2.1 0.4-4.1 3-3.8 5 0.3 1.7 1.4 2.5 2.8 2.4 0.8-1.1 1.1-2.2 1.9-2.5 0.7-0.3 2.2 0 2.8 0.5 1.7 1.4 0.9 3.9-1.3 4.6-0.5 0.2-1.1 0.3-1.3 0.3-0.7 2.1-1.3 3.8-2 5.6q-0.2 0-0.5-0.1c-0.7-1.4-1.4-2.8-2-4-1.8 1-3.7 2-5.6 3 0.7-2.5 1.4-4.5 1.9-6.6 0.3-1.2 0.2-2.4 0.6-3.6 0.8-2.6 2.7-4.6 5.2-5.9-0.9-1.6-1.6-3-2.4-4.4q0.3-0.2 0.6-0.4c3.4 3.6 8.9 3.6 13.2 6.1 0.2-2.7 0.4-5.2-0.6-7.6-0.9-2.2-2.3-3-5.2-3 0.4-0.6 0.7-1.2 1-1.8-1.9-0.8-4.2-0.1-5.1 1.6-0.8 1.6-0.3 2.9 1.4 3.4 0.1 0 0.3-0.1 0.3-0.1 0.2-1 0.7-2 1.9-1.8 0.8 0.1 2 0.6 2.3 1.2 0.4 0.8 0.2 2-0.2 2.8-0.3 0.5-1.4 0.9-2.2 1.1-2 0.3-5-1.3-5.9-2.9-0.9-1.8-0.4-4.4 1.4-5.7 0.7-0.5 0.8-0.9 0.6-1.7-0.2-1.2 0-2.4 0.2-3.7 1.2 2.3 2.4 4.4 5.8 4.4 0.1-0.8 0.2-1.6 0.3-2.3 1.4 1.6 2.6 3.2 4.1 5.1 0.1-5.2-2.6-7.5-6.1-6.3 1.2-2.4-1-3.8-1.6-5.7-0.3-1.1-0.2-2.2-0.2-3.3q0.2-0.1 0.5-0.1c1 1 2 2 3.1 3.1 0.5-0.6 1.1-1.2 1.9-2.1-0.2 2.2-0.2 4 2.1 5.4 0-2.8 0.6-5.4-0.3-8-0.3-0.7-1-1.3-1.7-1.9-0.2-0.2-0.8-0.2-1.2-0.3-0.1 0.3-0.2 0.7-0.3 1-0.2 0.4-0.3 0.9-0.5 1-0.5 0.1-1.3 0-1.4-0.3-0.5-0.8-1-1.8-0.9-2.6 0.1-0.6 1-1.2 1.7-1.7 0.4-0.2 1-0.2 1.3-0.3q-0.8-2-1.6-4 0.2-0.1 0.5-0.2 2.3 1.3 4.6 2.5c0.6-2.5-0.4-4.1-3.9-5.6 0.7-0.3 1.3-0.7 2.1-1.1-2-3.9 0.8-7.1 2.6-10.9 1.6 3.8 4.6 6.8 2.5 10.9 0.8 0.4 1.4 0.7 2.2 1.1-3 1.1-4.6 2.8-4 5.7 1.6-0.9 3.1-1.7 4.9-2.7 0.3 1.7-0.2 3-1.7 4.2 0.8 0.1 1.5 0.1 1.9 0.4 0.7 0.6 1.6 1.3 1.6 2 0.1 0.8-0.4 1.7-1 2.4-0.7 0.7-1.7 0.3-1.8-0.6 0-0.4 0-0.7 0.1-1.1-1.3-0.4-2.3 0.2-2.6 1-0.6 1.6-1 3.2-1.1 4.8-0.2 1.3 0.1 2.7 0.2 4.2 2.2-1.3 2.2-3 2.4-5 0.5 0.6 1 1.1 1.5 1.7q1.5-1.5 3-3 0.3 0 0.5 0c0 1 0.1 2 0 3-0.2 0.7-0.7 1.4-1 2.1-0.4 1.2-0.8 2.4-1.2 3.7-3.7-0.4-5.2 1.1-5.3 6.3 1.3-1.6 2.5-3.1 3.8-4.8 0.1 0.2 0.2 0.4 0.2 0.7 0.1 1.8 0.5 2 2.3 1.2 1.8-0.7 2.2-1.3 3.4-4 1 1.3 1.1 2.6 0.2 4.6 2 1.4 3.2 3.1 2.7 5.5-0.4 2.2-4.1 4.4-6.6 3.8-1.3-0.3-2.3-0.9-2.5-2.3-0.1-1.3 0.5-2.3 1.9-2.7 1.8-0.5 2.5 0.6 2.9 1.8 1.6-0.3 2.2-1.2 1.9-2.5-0.6-2.1-2.6-3.1-5.5-2.6 0.3 0.6 0.7 1.2 1 1.9-3.6 0.4-5.1 1.6-5.6 4.7-0.2 1.9-0.2 3.8-0.4 6.1 4.5-2.6 9.9-2.6 13.4-6.2 0.4 1.4 0.4 1.4-1.8 4.6q0.9 0.6 1.9 1.3c2.3 1.7 3.8 3.9 3.9 6.6 0.2 2.7 0.7 5.3 2.6 7.9-2.6-0.2-4.4-1.3-5.9-2.9q-1 2.3-2.1 4.4-0.2 0.1-0.5 0.2c-0.6-1.9-1.3-3.7-2.1-5.7-2.5-0.5-3.7-1.7-3.4-3.5 0.2-1.2 1.4-2.2 2.8-2.2 1.4 0 1.9 0.7 2.2 2.7 1.9 0.1 2.9-0.6 3.3-2.2 0.4-1.9-1.5-4.4-3.9-5.2q-0.6 1.5-1.3 3c-0.9-1-1.5-1.9-2.5-2.4-0.6-0.4-1.7-0.3-2.5 0-2.3 0.8-3.8 2.4-4 4.6-0.1 2.1 0.1 4.3 0.4 6.4 0.3 1.9 1.7 3.1 3.2 3.1 0.4 0 0.7-0.2 1.2-0.3-0.2-0.2-0.3-0.4-0.4-0.5-1.1-0.7-1.6-1.5-0.7-2.5 0.8-0.9 2.6-1 3.6-0.3 2 1.3 1.8 3.9-0.4 5-2.3 1.1-4.6 0.8-6.2-0.9-0.5-0.5-0.8-1-1.3-1.6z"/><path fill-rule="evenodd" class="a" d="m987.4 92.4l32.7-92.1 33.8 92.1"/><path fill-rule="evenodd" class="a" d="m1078.1 85.1c-0.6 0.7-1.2 1.4-1.8 2-1.3 1.2-2.9 1.4-4.6 0.9-1.5-0.4-2.7-1.1-2.9-2.7-0.3-1.4 0.9-3.1 2.5-3.1 0.9 0 2.2 0.5 2.5 1.1 0.3 0.6-0.3 1.7-0.6 2.8 0.6 0.4 1.6 0.3 2.4-0.5 0.6-0.7 1.2-1.5 1.3-2.3 0.3-2.2 0.5-4.5 0.3-6.7-0.1-2.1-1.6-3.6-3.7-4.4-2.3-0.9-3.7-0.2-5 2.6-0.6-1.2-1.1-2.2-1.6-3.2-2.1 0.4-4.1 3-3.8 5 0.3 1.7 1.4 2.5 2.8 2.4 0.8-1.1 1.1-2.2 1.9-2.5 0.7-0.3 2.2 0 2.8 0.5 1.7 1.4 0.9 3.9-1.3 4.6-0.5 0.2-1.1 0.3-1.3 0.3-0.7 2.1-1.3 3.8-2 5.6q-0.2 0-0.5-0.1c-0.7-1.4-1.4-2.8-2-4-1.8 1-3.7 2-5.6 3 0.7-2.5 1.4-4.5 1.9-6.6 0.3-1.2 0.2-2.4 0.6-3.6 0.8-2.6 2.7-4.6 5.2-5.9-0.9-1.6-1.6-3-2.4-4.4q0.3-0.2 0.6-0.4c3.4 3.6 8.9 3.6 13.2 6.1 0.2-2.7 0.4-5.2-0.6-7.6-0.9-2.2-2.3-3-5.2-3 0.4-0.6 0.7-1.2 1-1.8-1.9-0.8-4.2-0.1-5.1 1.6-0.8 1.6-0.3 2.9 1.4 3.4 0.1 0 0.3-0.1 0.3-0.1 0.2-1 0.7-2 1.9-1.8 0.8 0.1 2 0.6 2.3 1.2 0.4 0.8 0.2 2-0.2 2.8-0.3 0.5-1.4 0.9-2.2 1.1-2 0.3-5-1.3-5.9-2.9-0.9-1.8-0.4-4.4 1.4-5.7 0.7-0.5 0.8-0.9 0.6-1.7-0.2-1.2 0-2.4 0.2-3.7 1.2 2.3 2.4 4.4 5.8 4.4 0.1-0.8 0.2-1.6 0.3-2.3 1.4 1.6 2.6 3.2 4.1 5.1 0.1-5.2-2.6-7.5-6.1-6.3 1.2-2.4-1-3.8-1.6-5.7-0.3-1.1-0.2-2.2-0.2-3.3q0.2-0.1 0.5-0.1c1 1 2 2 3.1 3.1 0.5-0.6 1.1-1.2 1.9-2.1-0.2 2.2-0.2 4 2.1 5.4 0-2.8 0.6-5.4-0.3-8-0.3-0.7-1-1.3-1.7-1.9-0.2-0.2-0.8-0.2-1.2-0.3-0.1 0.3-0.2 0.7-0.3 1-0.2 0.4-0.3 0.9-0.5 1-0.5 0.1-1.3 0-1.4-0.3-0.5-0.8-1-1.8-0.9-2.6 0.1-0.6 1-1.2 1.7-1.7 0.4-0.2 1-0.2 1.3-0.3q-0.8-2-1.6-4 0.2-0.1 0.5-0.2 2.3 1.3 4.6 2.5c0.6-2.5-0.4-4.1-3.9-5.6 0.7-0.3 1.3-0.7 2.1-1.1-2-3.9 0.8-7.1 2.6-10.9 1.6 3.8 4.6 6.8 2.5 10.9 0.8 0.4 1.4 0.7 2.2 1.1-3 1.1-4.6 2.8-4 5.7 1.6-0.9 3.1-1.7 4.9-2.7 0.3 1.7-0.2 3-1.7 4.2 0.8 0.1 1.5 0.1 1.9 0.4 0.7 0.6 1.6 1.3 1.6 2 0.1 0.8-0.4 1.7-1 2.4-0.7 0.7-1.7 0.3-1.8-0.6 0-0.4 0-0.7 0.1-1.1-1.3-0.4-2.3 0.2-2.6 1-0.6 1.6-1 3.2-1.1 4.8-0.2 1.3 0.1 2.7 0.2 4.2 2.2-1.3 2.2-3 2.4-5 0.5 0.6 1 1.1 1.5 1.7q1.5-1.5 3-3 0.3 0 0.5 0c0 1 0.1 2 0 3-0.2 0.7-0.7 1.4-1 2.1-0.4 1.2-0.8 2.4-1.2 3.7-3.7-0.4-5.2 1.1-5.3 6.3 1.3-1.6 2.5-3.1 3.8-4.8 0.1 0.2 0.2 0.4 0.2 0.7 0.1 1.8 0.5 2 2.3 1.2 1.8-0.7 2.2-1.3 3.4-4 1 1.3 1.1 2.6 0.2 4.6 2 1.4 3.2 3.1 2.7 5.5-0.4 2.2-4.1 4.4-6.6 3.8-1.3-0.3-2.3-0.9-2.5-2.3-0.1-1.3 0.5-2.3 1.9-2.7 1.8-0.5 2.5 0.6 2.9 1.8 1.6-0.3 2.2-1.2 1.9-2.5-0.6-2.1-2.6-3.1-5.5-2.6 0.3 0.6 0.7 1.2 1 1.9-3.6 0.4-5.1 1.6-5.6 4.7-0.2 1.9-0.2 3.8-0.4 6.1 4.5-2.6 9.9-2.6 13.4-6.2 0.4 1.4 0.4 1.4-1.8 4.6q0.9 0.6 1.9 1.3c2.3 1.7 3.8 3.9 3.9 6.6 0.2 2.7 0.7 5.3 2.6 7.9-2.6-0.2-4.4-1.3-5.9-2.9q-1 2.3-2.1 4.4-0.2 0.1-0.5 0.2c-0.6-1.9-1.3-3.7-2.1-5.7-2.5-0.5-3.7-1.7-3.4-3.5 0.2-1.2 1.4-2.2 2.8-2.2 1.4 0 1.9 0.7 2.2 2.7 1.9 0.1 2.9-0.6 3.3-2.2 0.4-1.9-1.5-4.4-3.9-5.2q-0.6 1.5-1.3 3c-0.9-1-1.5-1.9-2.5-2.4-0.6-0.4-1.7-0.3-2.5 0-2.3 0.8-3.8 2.4-4 4.6-0.1 2.1 0.1 4.3 0.4 6.4 0.3 1.9 1.7 3.1 3.2 3.1 0.4 0 0.7-0.2 1.2-0.3-0.2-0.2-0.3-0.4-0.4-0.5-1.1-0.7-1.6-1.5-0.7-2.5 0.8-0.9 2.6-1 3.6-0.3 2 1.3 1.8 3.9-0.4 5-2.3 1.1-4.6 0.8-6.2-0.9-0.5-0.5-0.8-1-1.3-1.6z"/><path fill-rule="evenodd" class="a" d="m1045.4 92.4l32.7-92.1 33.8 92.1"/><path fill-rule="evenodd" class="a" d="m1136.1 85.1c-0.6 0.7-1.2 1.4-1.8 2-1.3 1.2-2.9 1.4-4.6 0.9-1.5-0.4-2.7-1.1-2.9-2.7-0.3-1.4 0.9-3.1 2.5-3.1 0.9 0 2.2 0.5 2.5 1.1 0.3 0.6-0.3 1.7-0.6 2.8 0.6 0.4 1.6 0.3 2.4-0.5 0.6-0.7 1.2-1.5 1.3-2.3 0.3-2.2 0.5-4.5 0.3-6.7-0.1-2.1-1.6-3.6-3.7-4.4-2.3-0.9-3.7-0.2-5 2.6-0.6-1.2-1.1-2.2-1.6-3.2-2.1 0.4-4.1 3-3.8 5 0.3 1.7 1.4 2.5 2.8 2.4 0.8-1.1 1.1-2.2 1.9-2.5 0.7-0.3 2.2 0 2.8 0.5 1.7 1.4 0.9 3.9-1.3 4.6-0.5 0.2-1.1 0.3-1.3 0.3-0.7 2.1-1.3 3.8-2 5.6q-0.2 0-0.5-0.1c-0.7-1.4-1.4-2.8-2-4-1.8 1-3.7 2-5.6 3 0.7-2.5 1.4-4.5 1.9-6.6 0.3-1.2 0.2-2.4 0.6-3.6 0.8-2.6 2.7-4.6 5.2-5.9-0.9-1.6-1.6-3-2.4-4.4q0.3-0.2 0.6-0.4c3.4 3.6 8.9 3.6 13.2 6.1 0.2-2.7 0.4-5.2-0.6-7.6-0.9-2.2-2.3-3-5.2-3 0.4-0.6 0.7-1.2 1-1.8-1.9-0.8-4.2-0.1-5.1 1.6-0.8 1.6-0.3 2.9 1.4 3.4 0.1 0 0.3-0.1 0.3-0.1 0.2-1 0.7-2 1.9-1.8 0.8 0.1 2 0.6 2.3 1.2 0.4 0.8 0.2 2-0.2 2.8-0.3 0.5-1.4 0.9-2.2 1.1-2 0.3-5-1.3-5.9-2.9-0.9-1.8-0.4-4.4 1.4-5.7 0.7-0.5 0.8-0.9 0.6-1.7-0.2-1.2 0-2.4 0.2-3.7 1.2 2.3 2.4 4.4 5.8 4.4 0.1-0.8 0.2-1.6 0.3-2.3 1.4 1.6 2.6 3.2 4.1 5.1 0.1-5.2-2.6-7.5-6.1-6.3 1.2-2.4-1-3.8-1.6-5.7-0.3-1.1-0.2-2.2-0.2-3.3q0.2-0.1 0.5-0.1c1 1 2 2 3.1 3.1 0.5-0.6 1.1-1.2 1.9-2.1-0.2 2.2-0.2 4 2.1 5.4 0-2.8 0.6-5.4-0.3-8-0.3-0.7-1-1.3-1.7-1.9-0.2-0.2-0.8-0.2-1.2-0.3-0.1 0.3-0.2 0.7-0.3 1-0.2 0.4-0.3 0.9-0.5 1-0.5 0.1-1.3 0-1.4-0.3-0.5-0.8-1-1.8-0.9-2.6 0.1-0.6 1-1.2 1.7-1.7 0.4-0.2 1-0.2 1.3-0.3q-0.8-2-1.6-4 0.2-0.1 0.5-0.2 2.3 1.3 4.6 2.5c0.6-2.5-0.4-4.1-3.9-5.6 0.7-0.3 1.3-0.7 2.1-1.1-2-3.9 0.8-7.1 2.6-10.9 1.6 3.8 4.6 6.8 2.5 10.9 0.8 0.4 1.4 0.7 2.2 1.1-3 1.1-4.6 2.8-4 5.7 1.6-0.9 3.1-1.7 4.9-2.7 0.3 1.7-0.2 3-1.7 4.2 0.8 0.1 1.5 0.1 1.9 0.4 0.7 0.6 1.6 1.3 1.6 2 0.1 0.8-0.4 1.7-1 2.4-0.7 0.7-1.7 0.3-1.8-0.6 0-0.4 0-0.7 0.1-1.1-1.3-0.4-2.3 0.2-2.6 1-0.6 1.6-1 3.2-1.1 4.8-0.2 1.3 0.1 2.7 0.2 4.2 2.2-1.3 2.2-3 2.4-5 0.5 0.6 1 1.1 1.5 1.7q1.5-1.5 3-3 0.3 0 0.5 0c0 1 0.1 2 0 3-0.2 0.7-0.7 1.4-1 2.1-0.4 1.2-0.8 2.4-1.2 3.7-3.7-0.4-5.2 1.1-5.3 6.3 1.3-1.6 2.5-3.1 3.8-4.8 0.1 0.2 0.2 0.4 0.2 0.7 0.1 1.8 0.5 2 2.3 1.2 1.8-0.7 2.2-1.3 3.4-4 1 1.3 1.1 2.6 0.2 4.6 2 1.4 3.2 3.1 2.7 5.5-0.4 2.2-4.1 4.4-6.6 3.8-1.3-0.3-2.3-0.9-2.5-2.3-0.1-1.3 0.5-2.3 1.9-2.7 1.8-0.5 2.5 0.6 2.9 1.8 1.6-0.3 2.2-1.2 1.9-2.5-0.6-2.1-2.6-3.1-5.5-2.6 0.3 0.6 0.7 1.2 1 1.9-3.6 0.4-5.1 1.6-5.6 4.7-0.2 1.9-0.2 3.8-0.4 6.1 4.5-2.6 9.9-2.6 13.4-6.2 0.4 1.4 0.4 1.4-1.8 4.6q0.9 0.6 1.9 1.3c2.3 1.7 3.8 3.9 3.9 6.6 0.2 2.7 0.7 5.3 2.6 7.9-2.6-0.2-4.4-1.3-5.9-2.9q-1 2.3-2.1 4.4-0.2 0.1-0.5 0.2c-0.6-1.9-1.3-3.7-2.1-5.7-2.5-0.5-3.7-1.7-3.4-3.5 0.2-1.2 1.4-2.2 2.8-2.2 1.4 0 1.9 0.7 2.2 2.7 1.9 0.1 2.9-0.6 3.3-2.2 0.4-1.9-1.5-4.4-3.9-5.2q-0.6 1.5-1.3 3c-0.9-1-1.5-1.9-2.5-2.4-0.6-0.4-1.7-0.3-2.5 0-2.3 0.8-3.8 2.4-4 4.6-0.1 2.1 0.1 4.3 0.4 6.4 0.3 1.9 1.7 3.1 3.2 3.1 0.4 0 0.7-0.2 1.2-0.3-0.2-0.2-0.3-0.4-0.4-0.5-1.1-0.7-1.6-1.5-0.7-2.5 0.8-0.9 2.6-1 3.6-0.3 2 1.3 1.8 3.9-0.4 5-2.3 1.1-4.6 0.8-6.2-0.9-0.5-0.5-0.8-1-1.3-1.6z"/><path fill-rule="evenodd" class="a" d="m1103.4 92.4l32.7-92.1 33.8 92.1"/><path fill-rule="evenodd" class="a" d="m1194.1 85.1c-0.6 0.7-1.2 1.4-1.8 2-1.3 1.2-2.9 1.4-4.6 0.9-1.5-0.4-2.7-1.1-2.9-2.7-0.3-1.4 0.9-3.1 2.5-3.1 0.9 0 2.2 0.5 2.5 1.1 0.3 0.6-0.3 1.7-0.6 2.8 0.6 0.4 1.6 0.3 2.4-0.5 0.6-0.7 1.2-1.5 1.3-2.3 0.3-2.2 0.5-4.5 0.3-6.7-0.1-2.1-1.6-3.6-3.7-4.4-2.3-0.9-3.7-0.2-5 2.6-0.6-1.2-1.1-2.2-1.6-3.2-2.1 0.4-4.1 3-3.8 5 0.3 1.7 1.4 2.5 2.8 2.4 0.8-1.1 1.1-2.2 1.9-2.5 0.7-0.3 2.2 0 2.8 0.5 1.7 1.4 0.9 3.9-1.3 4.6-0.5 0.2-1.1 0.3-1.3 0.3-0.7 2.1-1.3 3.8-2 5.6q-0.2 0-0.5-0.1c-0.7-1.4-1.4-2.8-2-4-1.8 1-3.7 2-5.6 3 0.7-2.5 1.4-4.5 1.9-6.6 0.3-1.2 0.2-2.4 0.6-3.6 0.8-2.6 2.7-4.6 5.2-5.9-0.9-1.6-1.6-3-2.4-4.4q0.3-0.2 0.6-0.4c3.4 3.6 8.9 3.6 13.2 6.1 0.2-2.7 0.4-5.2-0.6-7.6-0.9-2.2-2.3-3-5.2-3 0.4-0.6 0.7-1.2 1-1.8-1.9-0.8-4.2-0.1-5.1 1.6-0.8 1.6-0.3 2.9 1.4 3.4 0.1 0 0.3-0.1 0.3-0.1 0.2-1 0.7-2 1.9-1.8 0.8 0.1 2 0.6 2.3 1.2 0.4 0.8 0.2 2-0.2 2.8-0.3 0.5-1.4 0.9-2.2 1.1-2 0.3-5-1.3-5.9-2.9-0.9-1.8-0.4-4.4 1.4-5.7 0.7-0.5 0.8-0.9 0.6-1.7-0.2-1.2 0-2.4 0.2-3.7 1.2 2.3 2.4 4.4 5.8 4.4 0.1-0.8 0.2-1.6 0.3-2.3 1.4 1.6 2.6 3.2 4.1 5.1 0.1-5.2-2.6-7.5-6.1-6.3 1.2-2.4-1-3.8-1.6-5.7-0.3-1.1-0.2-2.2-0.2-3.3q0.2-0.1 0.5-0.1c1 1 2 2 3.1 3.1 0.5-0.6 1.1-1.2 1.9-2.1-0.2 2.2-0.2 4 2.1 5.4 0-2.8 0.6-5.4-0.3-8-0.3-0.7-1-1.3-1.7-1.9-0.2-0.2-0.8-0.2-1.2-0.3-0.1 0.3-0.2 0.7-0.3 1-0.2 0.4-0.3 0.9-0.5 1-0.5 0.1-1.3 0-1.4-0.3-0.5-0.8-1-1.8-0.9-2.6 0.1-0.6 1-1.2 1.7-1.7 0.4-0.2 1-0.2 1.3-0.3q-0.8-2-1.6-4 0.2-0.1 0.5-0.2 2.3 1.3 4.6 2.5c0.6-2.5-0.4-4.1-3.9-5.6 0.7-0.3 1.3-0.7 2.1-1.1-2-3.9 0.8-7.1 2.6-10.9 1.6 3.8 4.6 6.8 2.5 10.9 0.8 0.4 1.4 0.7 2.2 1.1-3 1.1-4.6 2.8-4 5.7 1.6-0.9 3.1-1.7 4.9-2.7 0.3 1.7-0.2 3-1.7 4.2 0.8 0.1 1.5 0.1 1.9 0.4 0.7 0.6 1.6 1.3 1.6 2 0.1 0.8-0.4 1.7-1 2.4-0.7 0.7-1.7 0.3-1.8-0.6 0-0.4 0-0.7 0.1-1.1-1.3-0.4-2.3 0.2-2.6 1-0.6 1.6-1 3.2-1.1 4.8-0.2 1.3 0.1 2.7 0.2 4.2 2.2-1.3 2.2-3 2.4-5 0.5 0.6 1 1.1 1.5 1.7q1.5-1.5 3-3 0.3 0 0.5 0c0 1 0.1 2 0 3-0.2 0.7-0.7 1.4-1 2.1-0.4 1.2-0.8 2.4-1.2 3.7-3.7-0.4-5.2 1.1-5.3 6.3 1.3-1.6 2.5-3.1 3.8-4.8 0.1 0.2 0.2 0.4 0.2 0.7 0.1 1.8 0.5 2 2.3 1.2 1.8-0.7 2.2-1.3 3.4-4 1 1.3 1.1 2.6 0.2 4.6 2 1.4 3.2 3.1 2.7 5.5-0.4 2.2-4.1 4.4-6.6 3.8-1.3-0.3-2.3-0.9-2.5-2.3-0.1-1.3 0.5-2.3 1.9-2.7 1.8-0.5 2.5 0.6 2.9 1.8 1.6-0.3 2.2-1.2 1.9-2.5-0.6-2.1-2.6-3.1-5.5-2.6 0.3 0.6 0.7 1.2 1 1.9-3.6 0.4-5.1 1.6-5.6 4.7-0.2 1.9-0.2 3.8-0.4 6.1 4.5-2.6 9.9-2.6 13.4-6.2 0.4 1.4 0.4 1.4-1.8 4.6q0.9 0.6 1.9 1.3c2.3 1.7 3.8 3.9 3.9 6.6 0.2 2.7 0.7 5.3 2.6 7.9-2.6-0.2-4.4-1.3-5.9-2.9q-1 2.3-2.1 4.4-0.2 0.1-0.5 0.2c-0.6-1.9-1.3-3.7-2.1-5.7-2.5-0.5-3.7-1.7-3.4-3.5 0.2-1.2 1.4-2.2 2.8-2.2 1.4 0 1.9 0.7 2.2 2.7 1.9 0.1 2.9-0.6 3.3-2.2 0.4-1.9-1.5-4.4-3.9-5.2q-0.6 1.5-1.3 3c-0.9-1-1.5-1.9-2.5-2.4-0.6-0.4-1.7-0.3-2.5 0-2.3 0.8-3.8 2.4-4 4.6-0.1 2.1 0.1 4.3 0.4 6.4 0.3 1.9 1.7 3.1 3.2 3.1 0.4 0 0.7-0.2 1.2-0.3-0.2-0.2-0.3-0.4-0.4-0.5-1.1-0.7-1.6-1.5-0.7-2.5 0.8-0.9 2.6-1 3.6-0.3 2 1.3 1.8 3.9-0.4 5-2.3 1.1-4.6 0.8-6.2-0.9-0.5-0.5-0.8-1-1.3-1.6z"/><path fill-rule="evenodd" class="a" d="m1161.4 92.4l32.7-92.1 33.8 92.1"/><path fill-rule="evenodd" class="a" d="m1252.1 85.1c-0.6 0.7-1.2 1.4-1.8 2-1.3 1.2-2.9 1.4-4.6 0.9-1.5-0.4-2.7-1.1-2.9-2.7-0.3-1.4 0.9-3.1 2.5-3.1 0.9 0 2.2 0.5 2.5 1.1 0.3 0.6-0.3 1.7-0.6 2.8 0.6 0.4 1.6 0.3 2.4-0.5 0.6-0.7 1.2-1.5 1.3-2.3 0.3-2.2 0.5-4.5 0.3-6.7-0.1-2.1-1.6-3.6-3.7-4.4-2.3-0.9-3.7-0.2-5 2.6-0.6-1.2-1.1-2.2-1.6-3.2-2.1 0.4-4.1 3-3.8 5 0.3 1.7 1.4 2.5 2.8 2.4 0.8-1.1 1.1-2.2 1.9-2.5 0.7-0.3 2.2 0 2.8 0.5 1.7 1.4 0.9 3.9-1.3 4.6-0.5 0.2-1.1 0.3-1.3 0.3-0.7 2.1-1.3 3.8-2 5.6q-0.2 0-0.5-0.1c-0.7-1.4-1.4-2.8-2-4-1.8 1-3.7 2-5.6 3 0.7-2.5 1.4-4.5 1.9-6.6 0.3-1.2 0.2-2.4 0.6-3.6 0.8-2.6 2.7-4.6 5.2-5.9-0.9-1.6-1.6-3-2.4-4.4q0.3-0.2 0.6-0.4c3.4 3.6 8.9 3.6 13.2 6.1 0.2-2.7 0.4-5.2-0.6-7.6-0.9-2.2-2.3-3-5.2-3 0.4-0.6 0.7-1.2 1-1.8-1.9-0.8-4.2-0.1-5.1 1.6-0.8 1.6-0.3 2.9 1.4 3.4 0.1 0 0.3-0.1 0.3-0.1 0.2-1 0.7-2 1.9-1.8 0.8 0.1 2 0.6 2.3 1.2 0.4 0.8 0.2 2-0.2 2.8-0.3 0.5-1.4 0.9-2.2 1.1-2 0.3-5-1.3-5.9-2.9-0.9-1.8-0.4-4.4 1.4-5.7 0.7-0.5 0.8-0.9 0.6-1.7-0.2-1.2 0-2.4 0.2-3.7 1.2 2.3 2.4 4.4 5.8 4.4 0.1-0.8 0.2-1.6 0.3-2.3 1.4 1.6 2.6 3.2 4.1 5.1 0.1-5.2-2.6-7.5-6.1-6.3 1.2-2.4-1-3.8-1.6-5.7-0.3-1.1-0.2-2.2-0.2-3.3q0.2-0.1 0.5-0.1c1 1 2 2 3.1 3.1 0.5-0.6 1.1-1.2 1.9-2.1-0.2 2.2-0.2 4 2.1 5.4 0-2.8 0.6-5.4-0.3-8-0.3-0.7-1-1.3-1.7-1.9-0.2-0.2-0.8-0.2-1.2-0.3-0.1 0.3-0.2 0.7-0.3 1-0.2 0.4-0.3 0.9-0.5 1-0.5 0.1-1.3 0-1.4-0.3-0.5-0.8-1-1.8-0.9-2.6 0.1-0.6 1-1.2 1.7-1.7 0.4-0.2 1-0.2 1.3-0.3q-0.8-2-1.6-4 0.2-0.1 0.5-0.2 2.3 1.3 4.6 2.5c0.6-2.5-0.4-4.1-3.9-5.6 0.7-0.3 1.3-0.7 2.1-1.1-2-3.9 0.8-7.1 2.6-10.9 1.6 3.8 4.6 6.8 2.5 10.9 0.8 0.4 1.4 0.7 2.2 1.1-3 1.1-4.6 2.8-4 5.7 1.6-0.9 3.1-1.7 4.9-2.7 0.3 1.7-0.2 3-1.7 4.2 0.8 0.1 1.5 0.1 1.9 0.4 0.7 0.6 1.6 1.3 1.6 2 0.1 0.8-0.4 1.7-1 2.4-0.7 0.7-1.7 0.3-1.8-0.6 0-0.4 0-0.7 0.1-1.1-1.3-0.4-2.3 0.2-2.6 1-0.6 1.6-1 3.2-1.1 4.8-0.2 1.3 0.1 2.7 0.2 4.2 2.2-1.3 2.2-3 2.4-5 0.5 0.6 1 1.1 1.5 1.7q1.5-1.5 3-3 0.3 0 0.5 0c0 1 0.1 2 0 3-0.2 0.7-0.7 1.4-1 2.1-0.4 1.2-0.8 2.4-1.2 3.7-3.7-0.4-5.2 1.1-5.3 6.3 1.3-1.6 2.5-3.1 3.8-4.8 0.1 0.2 0.2 0.4 0.2 0.7 0.1 1.8 0.5 2 2.3 1.2 1.8-0.7 2.2-1.3 3.4-4 1 1.3 1.1 2.6 0.2 4.6 2 1.4 3.2 3.1 2.7 5.5-0.4 2.2-4.1 4.4-6.6 3.8-1.3-0.3-2.3-0.9-2.5-2.3-0.1-1.3 0.5-2.3 1.9-2.7 1.8-0.5 2.5 0.6 2.9 1.8 1.6-0.3 2.2-1.2 1.9-2.5-0.6-2.1-2.6-3.1-5.5-2.6 0.3 0.6 0.7 1.2 1 1.9-3.6 0.4-5.1 1.6-5.6 4.7-0.2 1.9-0.2 3.8-0.4 6.1 4.5-2.6 9.9-2.6 13.4-6.2 0.4 1.4 0.4 1.4-1.8 4.6q0.9 0.6 1.9 1.3c2.3 1.7 3.8 3.9 3.9 6.6 0.2 2.7 0.7 5.3 2.6 7.9-2.6-0.2-4.4-1.3-5.9-2.9q-1 2.3-2.1 4.4-0.2 0.1-0.5 0.2c-0.6-1.9-1.3-3.7-2.1-5.7-2.5-0.5-3.7-1.7-3.4-3.5 0.2-1.2 1.4-2.2 2.8-2.2 1.4 0 1.9 0.7 2.2 2.7 1.9 0.1 2.9-0.6 3.3-2.2 0.4-1.9-1.5-4.4-3.9-5.2q-0.6 1.5-1.3 3c-0.9-1-1.5-1.9-2.5-2.4-0.6-0.4-1.7-0.3-2.5 0-2.3 0.8-3.8 2.4-4 4.6-0.1 2.1 0.1 4.3 0.4 6.4 0.3 1.9 1.7 3.1 3.2 3.1 0.4 0 0.7-0.2 1.2-0.3-0.2-0.2-0.3-0.4-0.4-0.5-1.1-0.7-1.6-1.5-0.7-2.5 0.8-0.9 2.6-1 3.6-0.3 2 1.3 1.8 3.9-0.4 5-2.3 1.1-4.6 0.8-6.2-0.9-0.5-0.5-0.8-1-1.3-1.6z"/><path fill-rule="evenodd" class="a" d="m1219.4 92.4l32.7-92.1 33.8 92.1"/><path fill-rule="evenodd" class="a" d="m1310.1 85.1c-0.6 0.7-1.2 1.4-1.8 2-1.3 1.2-2.9 1.4-4.6 0.9-1.5-0.4-2.7-1.1-2.9-2.7-0.3-1.4 0.9-3.1 2.5-3.1 0.9 0 2.2 0.5 2.5 1.1 0.3 0.6-0.3 1.7-0.6 2.8 0.6 0.4 1.6 0.3 2.4-0.5 0.6-0.7 1.2-1.5 1.3-2.3 0.3-2.2 0.5-4.5 0.3-6.7-0.1-2.1-1.6-3.6-3.7-4.4-2.3-0.9-3.7-0.2-5 2.6-0.6-1.2-1.1-2.2-1.6-3.2-2.1 0.4-4.1 3-3.8 5 0.3 1.7 1.4 2.5 2.8 2.4 0.8-1.1 1.1-2.2 1.9-2.5 0.7-0.3 2.2 0 2.8 0.5 1.7 1.4 0.9 3.9-1.3 4.6-0.5 0.2-1.1 0.3-1.3 0.3-0.7 2.1-1.3 3.8-2 5.6q-0.2 0-0.5-0.1c-0.7-1.4-1.4-2.8-2-4-1.8 1-3.7 2-5.6 3 0.7-2.5 1.4-4.5 1.9-6.6 0.3-1.2 0.2-2.4 0.6-3.6 0.8-2.6 2.7-4.6 5.2-5.9-0.9-1.6-1.6-3-2.4-4.4q0.3-0.2 0.6-0.4c3.4 3.6 8.9 3.6 13.2 6.1 0.2-2.7 0.4-5.2-0.6-7.6-0.9-2.2-2.3-3-5.2-3 0.4-0.6 0.7-1.2 1-1.8-1.9-0.8-4.2-0.1-5.1 1.6-0.8 1.6-0.3 2.9 1.4 3.4 0.1 0 0.3-0.1 0.3-0.1 0.2-1 0.7-2 1.9-1.8 0.8 0.1 2 0.6 2.3 1.2 0.4 0.8 0.2 2-0.2 2.8-0.3 0.5-1.4 0.9-2.2 1.1-2 0.3-5-1.3-5.9-2.9-0.9-1.8-0.4-4.4 1.4-5.7 0.7-0.5 0.8-0.9 0.6-1.7-0.2-1.2 0-2.4 0.2-3.7 1.2 2.3 2.4 4.4 5.8 4.4 0.1-0.8 0.2-1.6 0.3-2.3 1.4 1.6 2.6 3.2 4.1 5.1 0.1-5.2-2.6-7.5-6.1-6.3 1.2-2.4-1-3.8-1.6-5.7-0.3-1.1-0.2-2.2-0.2-3.3q0.2-0.1 0.5-0.1c1 1 2 2 3.1 3.1 0.5-0.6 1.1-1.2 1.9-2.1-0.2 2.2-0.2 4 2.1 5.4 0-2.8 0.6-5.4-0.3-8-0.3-0.7-1-1.3-1.7-1.9-0.2-0.2-0.8-0.2-1.2-0.3-0.1 0.3-0.2 0.7-0.3 1-0.2 0.4-0.3 0.9-0.5 1-0.5 0.1-1.3 0-1.4-0.3-0.5-0.8-1-1.8-0.9-2.6 0.1-0.6 1-1.2 1.7-1.7 0.4-0.2 1-0.2 1.3-0.3q-0.8-2-1.6-4 0.2-0.1 0.5-0.2 2.3 1.3 4.6 2.5c0.6-2.5-0.4-4.1-3.9-5.6 0.7-0.3 1.3-0.7 2.1-1.1-2-3.9 0.8-7.1 2.6-10.9 1.6 3.8 4.6 6.8 2.5 10.9 0.8 0.4 1.4 0.7 2.2 1.1-3 1.1-4.6 2.8-4 5.7 1.6-0.9 3.1-1.7 4.9-2.7 0.3 1.7-0.2 3-1.7 4.2 0.8 0.1 1.5 0.1 1.9 0.4 0.7 0.6 1.6 1.3 1.6 2 0.1 0.8-0.4 1.7-1 2.4-0.7 0.7-1.7 0.3-1.8-0.6 0-0.4 0-0.7 0.1-1.1-1.3-0.4-2.3 0.2-2.6 1-0.6 1.6-1 3.2-1.1 4.8-0.2 1.3 0.1 2.7 0.2 4.2 2.2-1.3 2.2-3 2.4-5 0.5 0.6 1 1.1 1.5 1.7q1.5-1.5 3-3 0.3 0 0.5 0c0 1 0.1 2 0 3-0.2 0.7-0.7 1.4-1 2.1-0.4 1.2-0.8 2.4-1.2 3.7-3.7-0.4-5.2 1.1-5.3 6.3 1.3-1.6 2.5-3.1 3.8-4.8 0.1 0.2 0.2 0.4 0.2 0.7 0.1 1.8 0.5 2 2.3 1.2 1.8-0.7 2.2-1.3 3.4-4 1 1.3 1.1 2.6 0.2 4.6 2 1.4 3.2 3.1 2.7 5.5-0.4 2.2-4.1 4.4-6.6 3.8-1.3-0.3-2.3-0.9-2.5-2.3-0.1-1.3 0.5-2.3 1.9-2.7 1.8-0.5 2.5 0.6 2.9 1.8 1.6-0.3 2.2-1.2 1.9-2.5-0.6-2.1-2.6-3.1-5.5-2.6 0.3 0.6 0.7 1.2 1 1.9-3.6 0.4-5.1 1.6-5.6 4.7-0.2 1.9-0.2 3.8-0.4 6.1 4.5-2.6 9.9-2.6 13.4-6.2 0.4 1.4 0.4 1.4-1.8 4.6q0.9 0.6 1.9 1.3c2.3 1.7 3.8 3.9 3.9 6.6 0.2 2.7 0.7 5.3 2.6 7.9-2.6-0.2-4.4-1.3-5.9-2.9q-1 2.3-2.1 4.4-0.2 0.1-0.5 0.2c-0.6-1.9-1.3-3.7-2.1-5.7-2.5-0.5-3.7-1.7-3.4-3.5 0.2-1.2 1.4-2.2 2.8-2.2 1.4 0 1.9 0.7 2.2 2.7 1.9 0.1 2.9-0.6 3.3-2.2 0.4-1.9-1.5-4.4-3.9-5.2q-0.6 1.5-1.3 3c-0.9-1-1.5-1.9-2.5-2.4-0.6-0.4-1.7-0.3-2.5 0-2.3 0.8-3.8 2.4-4 4.6-0.1 2.1 0.1 4.3 0.4 6.4 0.3 1.9 1.7 3.1 3.2 3.1 0.4 0 0.7-0.2 1.2-0.3-0.2-0.2-0.3-0.4-0.4-0.5-1.1-0.7-1.6-1.5-0.7-2.5 0.8-0.9 2.6-1 3.6-0.3 2 1.3 1.8 3.9-0.4 5-2.3 1.1-4.6 0.8-6.2-0.9-0.5-0.5-0.8-1-1.3-1.6z"/><path fill-rule="evenodd" class="a" d="m1277.4 92.4l32.7-92.1 33.8 92.1"/><path fill-rule="evenodd" class="a" d="m1368.1 85.1c-0.6 0.7-1.2 1.4-1.8 2-1.3 1.2-2.9 1.4-4.6 0.9-1.5-0.4-2.7-1.1-2.9-2.7-0.3-1.4 0.9-3.1 2.5-3.1 0.9 0 2.2 0.5 2.5 1.1 0.3 0.6-0.3 1.7-0.6 2.8 0.6 0.4 1.6 0.3 2.4-0.5 0.6-0.7 1.2-1.5 1.3-2.3 0.3-2.2 0.5-4.5 0.3-6.7-0.1-2.1-1.6-3.6-3.7-4.4-2.3-0.9-3.7-0.2-5 2.6-0.6-1.2-1.1-2.2-1.6-3.2-2.1 0.4-4.1 3-3.8 5 0.3 1.7 1.4 2.5 2.8 2.4 0.8-1.1 1.1-2.2 1.9-2.5 0.7-0.3 2.2 0 2.8 0.5 1.7 1.4 0.9 3.9-1.3 4.6-0.5 0.2-1.1 0.3-1.3 0.3-0.7 2.1-1.3 3.8-2 5.6q-0.2 0-0.5-0.1c-0.7-1.4-1.4-2.8-2-4-1.8 1-3.7 2-5.6 3 0.7-2.5 1.4-4.5 1.9-6.6 0.3-1.2 0.2-2.4 0.6-3.6 0.8-2.6 2.7-4.6 5.2-5.9-0.9-1.6-1.6-3-2.4-4.4q0.3-0.2 0.6-0.4c3.4 3.6 8.9 3.6 13.2 6.1 0.2-2.7 0.4-5.2-0.6-7.6-0.9-2.2-2.3-3-5.2-3 0.4-0.6 0.7-1.2 1-1.8-1.9-0.8-4.2-0.1-5.1 1.6-0.8 1.6-0.3 2.9 1.4 3.4 0.1 0 0.3-0.1 0.3-0.1 0.2-1 0.7-2 1.9-1.8 0.8 0.1 2 0.6 2.3 1.2 0.4 0.8 0.2 2-0.2 2.8-0.3 0.5-1.4 0.9-2.2 1.1-2 0.3-5-1.3-5.9-2.9-0.9-1.8-0.4-4.4 1.4-5.7 0.7-0.5 0.8-0.9 0.6-1.7-0.2-1.2 0-2.4 0.2-3.7 1.2 2.3 2.4 4.4 5.8 4.4 0.1-0.8 0.2-1.6 0.3-2.3 1.4 1.6 2.6 3.2 4.1 5.1 0.1-5.2-2.6-7.5-6.1-6.3 1.2-2.4-1-3.8-1.6-5.7-0.3-1.1-0.2-2.2-0.2-3.3q0.2-0.1 0.5-0.1c1 1 2 2 3.1 3.1 0.5-0.6 1.1-1.2 1.9-2.1-0.2 2.2-0.2 4 2.1 5.4 0-2.8 0.6-5.4-0.3-8-0.3-0.7-1-1.3-1.7-1.9-0.2-0.2-0.8-0.2-1.2-0.3-0.1 0.3-0.2 0.7-0.3 1-0.2 0.4-0.3 0.9-0.5 1-0.5 0.1-1.3 0-1.4-0.3-0.5-0.8-1-1.8-0.9-2.6 0.1-0.6 1-1.2 1.7-1.7 0.4-0.2 1-0.2 1.3-0.3q-0.8-2-1.6-4 0.2-0.1 0.5-0.2 2.3 1.3 4.6 2.5c0.6-2.5-0.4-4.1-3.9-5.6 0.7-0.3 1.3-0.7 2.1-1.1-2-3.9 0.8-7.1 2.6-10.9 1.6 3.8 4.6 6.8 2.5 10.9 0.8 0.4 1.4 0.7 2.2 1.1-3 1.1-4.6 2.8-4 5.7 1.6-0.9 3.1-1.7 4.9-2.7 0.3 1.7-0.2 3-1.7 4.2 0.8 0.1 1.5 0.1 1.9 0.4 0.7 0.6 1.6 1.3 1.6 2 0.1 0.8-0.4 1.7-1 2.4-0.7 0.7-1.7 0.3-1.8-0.6 0-0.4 0-0.7 0.1-1.1-1.3-0.4-2.3 0.2-2.6 1-0.6 1.6-1 3.2-1.1 4.8-0.2 1.3 0.1 2.7 0.2 4.2 2.2-1.3 2.2-3 2.4-5 0.5 0.6 1 1.1 1.5 1.7q1.5-1.5 3-3 0.3 0 0.5 0c0 1 0.1 2 0 3-0.2 0.7-0.7 1.4-1 2.1-0.4 1.2-0.8 2.4-1.2 3.7-3.7-0.4-5.2 1.1-5.3 6.3 1.3-1.6 2.5-3.1 3.8-4.8 0.1 0.2 0.2 0.4 0.2 0.7 0.1 1.8 0.5 2 2.3 1.2 1.8-0.7 2.2-1.3 3.4-4 1 1.3 1.1 2.6 0.2 4.6 2 1.4 3.2 3.1 2.7 5.5-0.4 2.2-4.1 4.4-6.6 3.8-1.3-0.3-2.3-0.9-2.5-2.3-0.1-1.3 0.5-2.3 1.9-2.7 1.8-0.5 2.5 0.6 2.9 1.8 1.6-0.3 2.2-1.2 1.9-2.5-0.6-2.1-2.6-3.1-5.5-2.6 0.3 0.6 0.7 1.2 1 1.9-3.6 0.4-5.1 1.6-5.6 4.7-0.2 1.9-0.2 3.8-0.4 6.1 4.5-2.6 9.9-2.6 13.4-6.2 0.4 1.4 0.4 1.4-1.8 4.6q0.9 0.6 1.9 1.3c2.3 1.7 3.8 3.9 3.9 6.6 0.2 2.7 0.7 5.3 2.6 7.9-2.6-0.2-4.4-1.3-5.9-2.9q-1 2.3-2.1 4.4-0.2 0.1-0.5 0.2c-0.6-1.9-1.3-3.7-2.1-5.7-2.5-0.5-3.7-1.7-3.4-3.5 0.2-1.2 1.4-2.2 2.8-2.2 1.4 0 1.9 0.7 2.2 2.7 1.9 0.1 2.9-0.6 3.3-2.2 0.4-1.9-1.5-4.4-3.9-5.2q-0.6 1.5-1.3 3c-0.9-1-1.5-1.9-2.5-2.4-0.6-0.4-1.7-0.3-2.5 0-2.3 0.8-3.8 2.4-4 4.6-0.1 2.1 0.1 4.3 0.4 6.4 0.3 1.9 1.7 3.1 3.2 3.1 0.4 0 0.7-0.2 1.2-0.3-0.2-0.2-0.3-0.4-0.4-0.5-1.1-0.7-1.6-1.5-0.7-2.5 0.8-0.9 2.6-1 3.6-0.3 2 1.3 1.8 3.9-0.4 5-2.3 1.1-4.6 0.8-6.2-0.9-0.5-0.5-0.8-1-1.3-1.6z"/><path fill-rule="evenodd" class="a" d="m1335.4 92.4l32.7-92.1 33.8 92.1"/></svg>